<?xml version="1.0" encoding="UTF-8"?>
<svg xmlns="http://www.w3.org/2000/svg" xmlns:xlink="http://www.w3.org/1999/xlink" width="198pt" height="62pt" viewBox="0 0 198 62" version="1.1">
<g id="surface1">
<path style=" stroke:none;fill-rule:nonzero;fill:rgb(0%,0%,0%);fill-opacity:1;" d="M 62.324219 8.902344 C 61.320312 9.527344 60.824219 9.710938 59.910156 9.820312 C 58.847656 9.929688 58.753906 9.96875 58.753906 10.390625 C 58.753906 10.703125 59.03125 11.054688 59.761719 11.621094 L 60.769531 12.390625 L 60.789062 14.871094 C 60.789062 16.226562 60.863281 21.222656 60.933594 25.976562 L 61.0625 34.605469 L 60.640625 35.578125 C 60.292969 36.386719 60.074219 36.625 59.488281 36.863281 C 59.105469 37.046875 58.738281 37.324219 58.683594 37.488281 C 58.648438 37.671875 58.664062 37.816406 58.71875 37.816406 C 58.792969 37.816406 59.597656 37.726562 60.496094 37.636719 C 62.015625 37.46875 62.765625 37.523438 65.125 37.910156 C 65.601562 38.003906 65.710938 37.964844 65.710938 37.671875 C 65.710938 37.46875 65.492188 37.265625 65.125 37.117188 C 64.777344 36.992188 64.285156 36.570312 63.972656 36.113281 L 63.421875 35.339844 L 63.496094 29.613281 L 63.550781 23.867188 L 63.148438 23.71875 C 62.800781 23.589844 63.039062 23.425781 64.722656 22.707031 C 66.574219 21.902344 66.828125 21.847656 68.21875 21.847656 L 69.738281 21.847656 L 70.910156 23.625 L 72.082031 25.425781 L 72.210938 30.382812 L 72.335938 35.339844 L 71.660156 36.21875 C 71.292969 36.699219 70.855469 37.085938 70.652344 37.085938 C 70.105469 37.085938 69.738281 37.285156 69.738281 37.617188 C 69.738281 37.871094 70.105469 37.910156 73.21875 37.910156 C 76.402344 37.910156 76.695312 37.890625 76.695312 37.578125 C 76.695312 37.398438 76.546875 37.265625 76.363281 37.265625 C 76.144531 37.265625 75.851562 36.898438 75.503906 36.203125 L 74.957031 35.15625 L 74.863281 29.738281 L 74.753906 24.324219 L 74.113281 22.671875 L 73.472656 21.023438 L 71.328125 20.25 L 69.1875 19.457031 L 66.40625 20.855469 C 64.867188 21.609375 63.589844 22.160156 63.570312 22.085938 C 63.535156 21.996094 63.625 18.945312 63.773438 15.328125 C 63.953125 10.242188 63.972656 8.644531 63.808594 8.410156 C 63.609375 8.132812 63.476562 8.171875 62.324219 8.902344 Z M 62.324219 8.902344 "/>
<path style=" stroke:none;fill-rule:nonzero;fill:rgb(0%,0%,0%);fill-opacity:1;" d="M 98.367188 8.921875 C 97.78125 9.25 96.976562 9.582031 96.554688 9.636719 C 95.21875 9.855469 95.144531 9.894531 95.269531 10.429688 C 95.328125 10.703125 95.675781 11.214844 96.023438 11.585938 L 96.664062 12.246094 L 96.882812 34.605469 L 96.296875 35.746094 C 95.839844 36.679688 95.640625 36.898438 95.289062 36.898438 C 94.558594 36.898438 94.265625 37.101562 94.265625 37.578125 C 94.265625 38.058594 94.191406 38.058594 97.394531 37.726562 C 98.128906 37.636719 99.832031 37.796875 101.734375 38.109375 C 102.265625 38.183594 102.320312 38.167969 102.320312 37.746094 C 102.320312 37.378906 102.207031 37.25 101.824219 37.15625 C 101.53125 37.101562 101.21875 37.03125 101.09375 36.992188 C 100.980469 36.957031 100.636719 36.570312 100.34375 36.113281 L 99.792969 35.320312 L 99.667969 31.191406 C 99.574219 28.140625 99.648438 24.710938 99.941406 18.007812 C 100.140625 13.03125 100.289062 8.847656 100.230469 8.71875 C 100.066406 8.261719 99.429688 8.316406 98.367188 8.921875 Z M 98.367188 8.921875 "/>
<path style=" stroke:none;fill-rule:nonzero;fill:rgb(0%,0%,0%);fill-opacity:1;" d="M 107.335938 9.015625 C 106.472656 9.5625 105.960938 9.75 105.101562 9.839844 C 103.875 9.96875 103.691406 10.1875 104.296875 10.792969 C 104.496094 10.996094 104.882812 11.511719 105.191406 11.953125 L 105.742188 12.757812 L 105.871094 17.898438 C 106.015625 24.34375 105.722656 34.402344 105.339844 35.726562 C 105.101562 36.550781 104.992188 36.699219 104.332031 36.957031 C 103.800781 37.15625 103.601562 37.339844 103.601562 37.636719 C 103.601562 38.003906 103.65625 38.019531 104.9375 37.871094 C 106.398438 37.707031 109.332031 37.726562 110.410156 37.890625 C 111.015625 37.984375 111.105469 37.964844 111.105469 37.652344 C 111.105469 37.285156 110.777344 37.085938 110.191406 37.085938 C 109.824219 37.085938 108.925781 36.039062 108.820312 35.488281 C 108.78125 35.300781 108.746094 33.980469 108.746094 32.550781 L 108.726562 29.925781 L 108.230469 30.125 C 107.792969 30.292969 107.847656 30.179688 108.632812 29.394531 C 109.128906 28.878906 109.550781 28.453125 109.585938 28.453125 C 109.601562 28.453125 110.664062 29.960938 111.949219 31.796875 C 113.230469 33.648438 114.53125 35.46875 114.800781 35.832031 C 115.386719 36.585938 118.242188 38.421875 118.648438 38.296875 C 118.773438 38.242188 119.359375 38.109375 119.949219 38.003906 C 120.625 37.855469 120.988281 37.707031 120.988281 37.523438 C 120.988281 37.378906 120.824219 37.265625 120.605469 37.265625 C 119.929688 37.265625 118.445312 35.761719 115.09375 31.632812 C 111.855469 27.628906 111.785156 27.554688 111.234375 27.667969 C 110.664062 27.777344 110.664062 27.757812 110.941406 27.429688 C 111.105469 27.242188 111.949219 26.195312 112.824219 25.113281 C 114.308594 23.28125 114.546875 23.074219 116.230469 22.121094 C 117.496094 21.40625 118.335938 21.054688 118.976562 20.984375 C 119.78125 20.890625 119.890625 20.816406 119.890625 20.449219 C 119.890625 20.210938 119.835938 20.011719 119.761719 20.011719 C 119.671875 20.011719 118.664062 20.175781 117.511719 20.359375 C 116.082031 20.578125 114.855469 20.652344 113.722656 20.597656 C 112.605469 20.542969 112.023438 20.578125 112.023438 20.710938 C 112.023438 21.148438 112.257812 21.480469 112.585938 21.480469 C 112.917969 21.480469 112.992188 21.753906 112.992188 22.855469 C 112.992188 23.074219 108.945312 28.347656 108.707031 28.421875 C 108.46875 28.507812 108.507812 23.261719 108.820312 15.601562 C 108.964844 11.914062 109.09375 8.847656 109.09375 8.777344 C 109.09375 8.703125 108.945312 8.574219 108.78125 8.484375 C 108.542969 8.351562 108.15625 8.5 107.335938 9.015625 Z M 107.335938 9.015625 "/>
<path style=" stroke:none;fill-rule:nonzero;fill:rgb(0%,0%,0%);fill-opacity:1;" d="M 43.472656 10.867188 C 42.375 10.960938 40.488281 10.996094 39.316406 10.960938 L 37.160156 10.886719 L 37.160156 11.308594 C 37.160156 11.695312 37.246094 11.746094 37.871094 11.746094 C 38.511719 11.746094 38.695312 11.859375 39.574219 12.871094 L 40.582031 13.972656 L 40.6875 19.332031 C 40.761719 22.289062 40.820312 26.804688 40.820312 29.375 L 40.820312 34.054688 L 39.917969 35.339844 C 39.0625 36.570312 38.988281 36.625 38.035156 36.808594 C 37.230469 36.972656 37.046875 37.066406 37.011719 37.429688 C 36.972656 37.671875 37.011719 37.929688 37.101562 38.003906 C 37.175781 38.09375 38.273438 38.039062 39.535156 37.871094 C 41.714844 37.617188 45.542969 37.652344 47.460938 37.945312 C 48.082031 38.039062 48.140625 38.019531 48.140625 37.578125 C 48.140625 37.175781 48.03125 37.101562 46.894531 36.824219 L 45.667969 36.511719 L 44.789062 35.140625 L 43.929688 33.761719 L 43.929688 26.25 L 46.089844 26.234375 L 48.230469 26.214844 L 50.792969 25.1875 L 53.355469 24.140625 L 54.695312 22.121094 C 55.425781 21.003906 56.066406 19.9375 56.101562 19.738281 C 56.15625 19.53125 56.101562 18.285156 55.972656 16.980469 L 55.734375 14.597656 L 53.757812 13.015625 L 51.78125 11.4375 L 48.890625 11.035156 C 47.300781 10.832031 45.886719 10.667969 45.742188 10.667969 C 45.59375 10.683594 44.589844 10.773438 43.472656 10.867188 Z M 46.089844 11.859375 C 46.875 11.933594 47.625 12.226562 49.128906 13 L 51.121094 14.042969 L 51.929688 16.210938 L 52.714844 18.394531 L 52.183594 20.691406 C 51.875 21.957031 51.5625 23.058594 51.492188 23.148438 C 51.417969 23.222656 50.429688 23.792969 49.292969 24.398438 L 47.242188 25.519531 L 45.578125 25.519531 C 44.386719 25.519531 43.929688 25.445312 43.910156 25.277344 C 43.890625 25.171875 43.910156 22.25 43.929688 18.835938 L 43.964844 12.59375 L 43.363281 12.078125 L 42.738281 11.546875 L 43.890625 11.640625 C 44.515625 11.714844 45.503906 11.804688 46.089844 11.859375 Z M 46.089844 11.859375 "/>
<path style=" stroke:none;fill-rule:nonzero;fill:rgb(0%,0%,0%);fill-opacity:1;" d="M 144.328125 20.285156 C 143.652344 20.890625 143.0625 21.203125 142.074219 21.496094 C 141.070312 21.808594 140.757812 21.976562 140.8125 22.195312 C 140.851562 22.359375 140.960938 22.46875 141.085938 22.453125 C 141.199219 22.414062 141.617188 22.746094 142.019531 23.1875 L 142.753906 23.957031 L 142.769531 29.464844 L 142.769531 34.972656 L 142.257812 35.890625 C 141.929688 36.496094 141.5625 36.898438 141.160156 37.066406 C 140.792969 37.230469 140.574219 37.449219 140.613281 37.617188 C 140.667969 37.871094 141.160156 37.910156 144.289062 37.910156 C 147.492188 37.910156 147.894531 37.871094 147.894531 37.617188 C 147.894531 37.414062 147.675781 37.285156 147.183594 37.191406 C 146.578125 37.101562 146.378906 36.9375 145.902344 36.203125 L 145.335938 35.300781 L 145.335938 24.050781 L 144.839844 24.03125 C 144.453125 24.011719 144.859375 23.753906 146.429688 23 C 148.664062 21.902344 149.765625 21.683594 151.449219 21.921875 C 152.234375 22.046875 152.289062 22.085938 153.1875 23.609375 L 154.121094 25.1875 L 154.121094 35.265625 L 153.644531 36.09375 C 153.277344 36.71875 153.023438 36.9375 152.492188 37.085938 C 151.867188 37.25 151.796875 37.324219 151.886719 37.726562 C 151.960938 38.183594 152.015625 38.203125 152.820312 38.058594 C 153.882812 37.890625 157.101562 37.890625 158.019531 38.074219 C 158.988281 38.257812 158.917969 37.871094 157.746094 36.699219 L 156.808594 35.761719 L 156.9375 30.566406 C 157.066406 25.390625 157.066406 25.390625 156.589844 23.460938 L 156.113281 21.554688 L 154.429688 20.597656 L 152.746094 19.664062 L 150.351562 20.359375 C 148.375 20.949219 147.75 21.222656 146.796875 21.921875 C 146.160156 22.394531 145.609375 22.746094 145.574219 22.707031 C 145.535156 22.671875 145.589844 22.027344 145.699219 21.296875 C 145.847656 20.324219 145.828125 19.898438 145.679688 19.71875 C 145.390625 19.367188 145.351562 19.367188 144.328125 20.285156 Z M 144.328125 20.285156 "/>
<path style=" stroke:none;fill-rule:nonzero;fill:rgb(0%,0%,0%);fill-opacity:1;" d="M 85.828125 19.992188 L 84.453125 20.101562 L 79.476562 24.617188 L 80.355469 25.445312 C 80.832031 25.882812 81.289062 26.25 81.378906 26.25 C 81.46875 26.25 81.945312 25.882812 82.457031 25.445312 L 83.359375 24.65625 L 82.84375 23.957031 L 82.332031 23.28125 L 83.285156 22.433594 C 84.65625 21.222656 84.621094 21.222656 85.867188 21.683594 C 87.363281 22.234375 87.914062 23.019531 88.042969 24.859375 C 88.113281 25.976562 88.1875 26.179688 88.554688 26.363281 L 88.976562 26.5625 L 88.464844 26.765625 C 88.1875 26.875 86.597656 27.410156 84.929688 27.941406 C 82.039062 28.859375 81.855469 28.953125 80.5 30.050781 L 79.109375 31.210938 L 79.183594 32.640625 C 79.238281 33.410156 79.3125 34.566406 79.367188 35.210938 L 79.476562 36.367188 L 81.289062 37.265625 L 83.101562 38.183594 L 84.691406 37.78125 C 86.085938 37.449219 86.449219 37.265625 87.363281 36.476562 C 88.261719 35.707031 88.390625 35.632812 88.207031 36.054688 C 87.988281 36.511719 88.023438 36.605469 88.792969 37.359375 L 89.597656 38.167969 L 91.429688 37.78125 C 92.4375 37.578125 93.292969 37.378906 93.3125 37.359375 C 93.351562 37.324219 93.332031 37.117188 93.261719 36.917969 C 93.1875 36.660156 92.984375 36.53125 92.65625 36.53125 C 92.253906 36.511719 91.980469 36.277344 91.285156 35.285156 C 90.441406 34.089844 90.402344 34.015625 90.496094 33.042969 C 90.550781 32.496094 90.640625 30.125 90.714844 27.777344 L 90.84375 23.515625 L 89.597656 21.683594 C 88.226562 19.605469 88.644531 19.789062 85.828125 19.992188 Z M 88.042969 29.152344 C 88.042969 29.851562 88.082031 31.390625 88.152344 32.605469 L 88.246094 34.789062 L 87.179688 35.578125 C 86.136719 36.367188 86.105469 36.386719 84.96875 36.277344 C 83.921875 36.183594 83.683594 36.09375 82.714844 35.300781 L 81.636719 34.421875 L 81.636719 32.675781 C 81.636719 31.722656 81.707031 30.824219 81.800781 30.679688 C 81.945312 30.457031 87.53125 27.921875 87.914062 27.902344 C 87.988281 27.902344 88.042969 28.472656 88.042969 29.152344 Z M 88.042969 29.152344 "/>
<path style=" stroke:none;fill-rule:nonzero;fill:rgb(0%,0%,0%);fill-opacity:1;" d="M 124.742188 21.277344 L 122.382812 22.527344 L 121.320312 25.445312 C 120.730469 27.0625 120.257812 28.601562 120.257812 28.914062 C 120.257812 29.207031 120.421875 30.492188 120.605469 31.742188 L 120.9375 34.015625 L 122.015625 35.007812 C 124.667969 37.414062 124.414062 37.285156 127.15625 37.746094 L 129.664062 38.167969 L 132.046875 37.597656 C 133.363281 37.285156 134.535156 36.992188 134.644531 36.917969 C 134.773438 36.863281 135.523438 35.980469 136.328125 34.992188 L 137.792969 33.175781 L 138.179688 30.75 C 138.398438 29.410156 138.5625 28.125 138.5625 27.886719 C 138.5625 27.648438 138.214844 26.4375 137.792969 25.1875 L 137.042969 22.929688 L 135.46875 21.789062 C 133.417969 20.34375 132.304688 20.011719 129.320312 20.011719 L 127.121094 20.011719 Z M 132.449219 21.847656 L 133.96875 22.78125 L 134.699219 25.058594 L 135.433594 27.316406 L 134.917969 30.328125 C 134.425781 33.300781 134.40625 33.335938 133.382812 35.121094 C 132.796875 36.09375 132.265625 36.898438 132.191406 36.898438 C 132.117188 36.898438 131.367188 37.03125 130.507812 37.15625 L 128.96875 37.414062 L 127.210938 36.53125 L 125.453125 35.652344 L 124.464844 33.503906 C 123.351562 31.097656 123.386719 31.355469 123.902344 27.261719 C 124.285156 24.34375 124.210938 24.492188 126.148438 22.414062 C 127.285156 21.203125 127.285156 21.203125 128.496094 21.09375 C 130.890625 20.890625 130.820312 20.875 132.449219 21.847656 Z M 132.449219 21.847656 "/>
<path style=" stroke:none;fill-rule:nonzero;fill:rgb(0%,0%,0%);fill-opacity:1;" d="M 143.890625 44.132812 L 143.503906 44.554688 L 143.871094 44.886719 C 144.234375 45.214844 144.253906 45.214844 144.601562 44.867188 C 144.929688 44.535156 144.929688 44.5 144.621094 44.117188 L 144.289062 43.710938 Z M 143.890625 44.132812 "/>
<path style=" stroke:none;fill-rule:nonzero;fill:rgb(0%,0%,0%);fill-opacity:1;" d="M 124.285156 44.429688 C 124.285156 44.535156 124.394531 44.609375 124.523438 44.609375 C 124.667969 44.609375 124.941406 44.796875 125.160156 45.035156 C 125.546875 45.4375 125.566406 45.621094 125.566406 48.996094 C 125.566406 52.488281 125.566406 52.523438 125.109375 52.964844 C 124.871094 53.21875 124.578125 53.421875 124.464844 53.421875 C 124.378906 53.421875 124.285156 53.496094 124.285156 53.570312 C 124.285156 53.644531 125.144531 53.71875 126.207031 53.699219 C 127.269531 53.699219 128.125 53.644531 128.125 53.550781 C 128.125 53.480469 127.964844 53.421875 127.78125 53.421875 C 127.582031 53.421875 127.25 53.199219 127.050781 52.945312 C 126.738281 52.539062 126.664062 52.195312 126.664062 51.109375 L 126.664062 49.75 L 127.359375 49.75 C 129.300781 49.75 130.855469 48.445312 130.871094 46.8125 C 130.871094 45.839844 130.582031 45.34375 129.664062 44.777344 C 129.101562 44.429688 128.695312 44.371094 126.644531 44.316406 C 125.144531 44.261719 124.285156 44.316406 124.285156 44.429688 Z M 128.496094 45.160156 C 129.425781 45.640625 129.8125 46.59375 129.558594 47.765625 C 129.371094 48.503906 129.261719 48.652344 128.550781 48.996094 C 128.113281 49.199219 127.507812 49.382812 127.210938 49.382812 L 126.664062 49.382812 L 126.664062 47.105469 C 126.664062 45.457031 126.609375 44.796875 126.445312 44.722656 C 126.316406 44.664062 126.574219 44.648438 126.992188 44.703125 C 127.433594 44.757812 128.113281 44.960938 128.496094 45.160156 Z M 128.496094 45.160156 "/>
<path style=" stroke:none;fill-rule:nonzero;fill:rgb(0%,0%,0%);fill-opacity:1;" d="M 158.019531 47.21875 C 157.488281 47.765625 157.046875 48.265625 157.046875 48.339844 C 157.046875 48.410156 157.269531 48.464844 157.558594 48.464844 L 158.054688 48.464844 L 158 50.429688 C 157.925781 52.851562 158.128906 53.71875 158.84375 53.84375 C 159.117188 53.898438 159.519531 53.824219 159.757812 53.679688 C 160.25 53.367188 160.289062 53.054688 159.832031 53.183594 C 159.261719 53.332031 159.097656 52.851562 158.972656 50.628906 L 158.859375 48.484375 L 159.464844 48.429688 C 160.214844 48.355469 160.304688 47.839844 159.574219 47.765625 C 159.136719 47.710938 159.078125 47.621094 159.023438 46.980469 L 158.972656 46.246094 Z M 158.019531 47.21875 "/>
<path style=" stroke:none;fill-rule:nonzero;fill:rgb(0%,0%,0%);fill-opacity:1;" d="M 134.386719 47.730469 C 134.09375 47.914062 133.785156 48.246094 133.730469 48.429688 C 133.65625 48.632812 133.492188 48.886719 133.363281 48.996094 C 133.160156 49.164062 133.125 49.050781 133.21875 48.371094 C 133.308594 47.457031 133.199219 47.382812 132.355469 47.859375 C 131.714844 48.226562 131.679688 48.339844 132.066406 48.652344 C 132.285156 48.832031 132.335938 49.328125 132.335938 50.871094 C 132.335938 52.632812 132.304688 52.90625 131.972656 53.238281 C 131.773438 53.441406 131.605469 53.625 131.605469 53.644531 C 131.605469 53.679688 132.210938 53.699219 132.960938 53.699219 C 133.710938 53.71875 134.28125 53.644531 134.242188 53.570312 C 134.1875 53.496094 134.023438 53.421875 133.894531 53.421875 C 133.398438 53.421875 133.21875 52.6875 133.292969 50.925781 C 133.34375 49.4375 133.398438 49.164062 133.765625 48.796875 C 134.113281 48.429688 134.222656 48.410156 134.550781 48.632812 C 134.902344 48.832031 134.992188 48.8125 135.285156 48.519531 C 135.59375 48.207031 135.59375 48.171875 135.285156 47.785156 C 134.957031 47.398438 134.957031 47.398438 134.386719 47.730469 Z M 134.386719 47.730469 "/>
<path style=" stroke:none;fill-rule:nonzero;fill:rgb(0%,0%,0%);fill-opacity:1;" d="M 144.144531 47.75 C 143.851562 47.953125 143.449219 48.097656 143.285156 48.097656 C 142.863281 48.097656 142.863281 48.191406 143.285156 48.613281 C 143.578125 48.90625 143.652344 49.363281 143.742188 51.769531 C 143.832031 54.359375 143.816406 54.632812 143.464844 55.371094 C 143.210938 55.863281 142.882812 56.230469 142.550781 56.378906 C 141.929688 56.636719 142.058594 56.964844 142.699219 56.726562 C 143.722656 56.324219 144.363281 55.605469 144.566406 54.632812 C 144.820312 53.40625 145.058594 47.621094 144.859375 47.511719 C 144.765625 47.457031 144.453125 47.566406 144.144531 47.75 Z M 144.144531 47.75 "/>
<path style=" stroke:none;fill-rule:nonzero;fill:rgb(0%,0%,0%);fill-opacity:1;" d="M 147.769531 47.601562 C 146.960938 48.0625 146.285156 49.238281 146.160156 50.429688 C 146.03125 51.441406 146.066406 51.640625 146.523438 52.46875 C 146.945312 53.257812 147.164062 53.460938 147.859375 53.679688 C 148.300781 53.84375 148.882812 53.917969 149.160156 53.863281 C 149.652344 53.734375 151.007812 52.558594 151.007812 52.246094 C 151.007812 52.15625 150.828125 52.246094 150.589844 52.46875 C 149.925781 53.09375 149.125 53.167969 148.355469 52.6875 C 147.769531 52.320312 146.78125 50.851562 147.109375 50.851562 C 147.199219 50.851562 147.148438 50.777344 147 50.6875 C 146.742188 50.523438 147.367188 50.410156 149.691406 50.191406 L 151.007812 50.0625 L 150.898438 49.402344 C 150.734375 48.464844 150.351562 47.933594 149.632812 47.621094 C 148.867188 47.308594 148.300781 47.308594 147.769531 47.601562 Z M 149.324219 48.0625 C 149.5625 48.246094 149.78125 48.667969 149.839844 49.035156 L 149.945312 49.695312 L 149.070312 49.824219 C 148.574219 49.898438 147.949219 49.988281 147.675781 50.042969 C 147.183594 50.136719 147.164062 50.117188 147.164062 49.4375 C 147.183594 48.078125 148.355469 47.308594 149.324219 48.0625 Z M 149.324219 48.0625 "/>
<path style=" stroke:none;fill-rule:nonzero;fill:rgb(0%,0%,0%);fill-opacity:1;" d="M 153.898438 47.695312 C 153.1875 47.953125 152.894531 48.191406 152.363281 48.996094 C 151.742188 49.9375 151.703125 50.042969 151.796875 51.089844 C 151.886719 52.027344 151.980469 52.265625 152.566406 52.871094 C 153.078125 53.386719 153.425781 53.585938 154.03125 53.660156 C 154.90625 53.789062 156.042969 53.421875 156.425781 52.890625 C 156.703125 52.539062 156.609375 52.375 156.28125 52.632812 C 156.152344 52.742188 155.769531 52.871094 155.417969 52.945312 C 154.082031 53.199219 152.855469 51.714844 152.835938 49.863281 C 152.835938 48.152344 154.304688 47.328125 155.4375 48.410156 C 155.933594 48.886719 155.949219 48.886719 156.316406 48.558594 C 156.683594 48.226562 156.683594 48.207031 156.371094 47.898438 C 155.875 47.4375 154.886719 47.347656 153.898438 47.695312 Z M 153.898438 47.695312 "/>
<path style=" stroke:none;fill-rule:nonzero;fill:rgb(0%,0%,0%);fill-opacity:1;" d="M 137.5 47.953125 C 136.859375 48.28125 136.675781 48.519531 136.347656 49.363281 C 135.78125 50.910156 135.945312 52.007812 136.894531 52.90625 C 137.445312 53.441406 137.792969 53.605469 138.234375 53.605469 L 138.835938 53.585938 L 138.339844 53.3125 C 138.046875 53.167969 137.664062 52.707031 137.445312 52.285156 C 137.117188 51.640625 137.078125 51.347656 137.1875 50.320312 C 137.296875 49.3125 137.410156 49.015625 137.882812 48.503906 C 138.339844 48.027344 138.597656 47.914062 139.183594 47.914062 C 140.667969 47.933594 141.417969 49.199219 141.085938 51.128906 C 140.8125 52.613281 140.335938 53.386719 139.550781 53.53125 C 139.203125 53.585938 138.945312 53.699219 139 53.753906 C 139.183594 53.917969 140.851562 53.367188 141.269531 52.980469 C 141.839844 52.46875 142.019531 52.121094 142.207031 51.109375 C 142.425781 49.917969 142 48.667969 141.160156 48.097656 C 140.261719 47.472656 138.578125 47.398438 137.5 47.953125 Z M 137.5 47.953125 "/>
</g>
</svg>
