<?xml version="1.0" encoding="UTF-8"?>
<svg xmlns="http://www.w3.org/2000/svg" xmlns:xlink="http://www.w3.org/1999/xlink" width="250pt" height="78pt" viewBox="0 0 250 78" version="1.1">
<g id="surface1">
<path style=" stroke:none;fill-rule:nonzero;fill:rgb(0%,0%,0%);fill-opacity:1;" d="M 78.820312 11.257812 C 77.546875 12.046875 76.921875 12.28125 75.765625 12.417969 C 74.421875 12.558594 74.304688 12.605469 74.304688 13.140625 C 74.304688 13.535156 74.652344 13.976562 75.578125 14.695312 L 76.851562 15.667969 L 76.875 18.804688 C 76.875 20.519531 76.96875 26.835938 77.058594 32.847656 L 77.222656 43.757812 L 76.691406 44.988281 C 76.25 46.011719 75.972656 46.3125 75.230469 46.613281 C 74.746094 46.847656 74.28125 47.195312 74.214844 47.402344 C 74.167969 47.636719 74.191406 47.820312 74.257812 47.820312 C 74.351562 47.820312 75.371094 47.707031 76.503906 47.589844 C 78.425781 47.378906 79.375 47.449219 82.359375 47.9375 C 82.964844 48.054688 83.101562 48.007812 83.101562 47.636719 C 83.101562 47.378906 82.824219 47.125 82.359375 46.9375 C 81.921875 46.777344 81.296875 46.242188 80.902344 45.664062 L 80.207031 44.6875 L 80.300781 37.445312 L 80.371094 30.179688 L 79.859375 29.992188 C 79.421875 29.832031 79.722656 29.621094 81.851562 28.714844 C 84.191406 27.695312 84.515625 27.625 86.273438 27.625 L 88.195312 27.625 L 89.675781 29.875 L 91.15625 32.152344 L 91.320312 38.417969 L 91.480469 44.6875 L 90.625 45.800781 C 90.160156 46.40625 89.605469 46.894531 89.351562 46.894531 C 88.65625 46.894531 88.195312 47.148438 88.195312 47.566406 C 88.195312 47.890625 88.65625 47.9375 92.59375 47.9375 C 96.621094 47.9375 96.992188 47.914062 96.992188 47.519531 C 96.992188 47.289062 96.804688 47.125 96.574219 47.125 C 96.296875 47.125 95.925781 46.660156 95.484375 45.777344 L 94.792969 44.457031 L 94.675781 37.605469 L 94.535156 30.757812 L 93.726562 28.667969 L 92.917969 26.582031 L 90.207031 25.605469 L 87.5 24.605469 L 83.980469 26.371094 C 82.035156 27.324219 80.417969 28.019531 80.394531 27.925781 C 80.347656 27.8125 80.464844 23.957031 80.648438 19.382812 C 80.878906 12.953125 80.902344 10.933594 80.695312 10.632812 C 80.441406 10.285156 80.277344 10.332031 78.820312 11.257812 Z M 78.820312 11.257812 "/>
<path style=" stroke:none;fill-rule:nonzero;fill:rgb(0%,0%,0%);fill-opacity:1;" d="M 124.398438 11.28125 C 123.65625 11.699219 122.640625 12.117188 122.105469 12.1875 C 120.417969 12.464844 120.324219 12.511719 120.484375 13.1875 C 120.554688 13.535156 120.996094 14.183594 121.433594 14.648438 L 122.246094 15.484375 L 122.382812 29.621094 L 122.523438 43.757812 L 121.78125 45.199219 C 121.203125 46.382812 120.949219 46.660156 120.507812 46.660156 C 119.582031 46.660156 119.214844 46.917969 119.214844 47.519531 C 119.214844 48.125 119.121094 48.125 123.171875 47.707031 C 124.097656 47.589844 126.25 47.796875 128.65625 48.191406 C 129.328125 48.285156 129.398438 48.261719 129.398438 47.730469 C 129.398438 47.265625 129.257812 47.101562 128.773438 46.984375 C 128.402344 46.917969 128.007812 46.824219 127.847656 46.777344 C 127.707031 46.730469 127.269531 46.242188 126.898438 45.664062 L 126.203125 44.664062 L 126.042969 39.441406 C 125.925781 35.585938 126.019531 31.246094 126.390625 22.773438 C 126.644531 16.480469 126.828125 11.1875 126.757812 11.027344 C 126.550781 10.445312 125.742188 10.515625 124.398438 11.28125 Z M 124.398438 11.28125 "/>
<path style=" stroke:none;fill-rule:nonzero;fill:rgb(0%,0%,0%);fill-opacity:1;" d="M 135.742188 11.398438 C 134.652344 12.09375 134.003906 12.328125 132.917969 12.441406 C 131.367188 12.605469 131.132812 12.882812 131.898438 13.648438 C 132.152344 13.90625 132.640625 14.554688 133.03125 15.113281 L 133.726562 16.132812 L 133.890625 22.632812 C 134.074219 30.78125 133.703125 43.503906 133.21875 45.175781 C 132.917969 46.21875 132.777344 46.40625 131.945312 46.730469 C 131.273438 46.984375 131.019531 47.21875 131.019531 47.589844 C 131.019531 48.054688 131.089844 48.078125 132.707031 47.890625 C 134.558594 47.683594 138.265625 47.707031 139.628906 47.914062 C 140.394531 48.03125 140.507812 48.007812 140.507812 47.613281 C 140.507812 47.148438 140.09375 46.894531 139.351562 46.894531 C 138.890625 46.894531 137.753906 45.570312 137.617188 44.875 C 137.570312 44.640625 137.523438 42.96875 137.523438 41.160156 L 137.5 37.839844 L 136.875 38.09375 C 136.320312 38.304688 136.390625 38.164062 137.382812 37.167969 C 138.007812 36.515625 138.542969 35.980469 138.589844 35.980469 C 138.609375 35.980469 139.953125 37.886719 141.574219 40.207031 C 143.195312 42.550781 144.839844 44.851562 145.183594 45.3125 C 145.925781 46.265625 149.535156 48.585938 150.046875 48.425781 C 150.207031 48.355469 150.949219 48.191406 151.691406 48.054688 C 152.546875 47.867188 153.007812 47.683594 153.007812 47.449219 C 153.007812 47.265625 152.800781 47.125 152.523438 47.125 C 151.667969 47.125 149.792969 45.222656 145.554688 40 C 141.457031 34.9375 141.367188 34.84375 140.671875 34.984375 C 139.953125 35.125 139.953125 35.101562 140.300781 34.683594 C 140.507812 34.449219 141.574219 33.125 142.683594 31.757812 C 144.558594 29.4375 144.859375 29.179688 146.992188 27.972656 C 148.589844 27.066406 149.652344 26.625 150.464844 26.535156 C 151.480469 26.417969 151.621094 26.324219 151.621094 25.859375 C 151.621094 25.558594 151.550781 25.304688 151.457031 25.304688 C 151.34375 25.304688 150.070312 25.511719 148.609375 25.746094 C 146.804688 26.023438 145.253906 26.117188 143.820312 26.046875 C 142.40625 25.976562 141.667969 26.023438 141.667969 26.1875 C 141.667969 26.742188 141.96875 27.160156 142.382812 27.160156 C 142.800781 27.160156 142.894531 27.507812 142.894531 28.902344 C 142.894531 29.179688 137.777344 35.84375 137.476562 35.9375 C 137.175781 36.050781 137.222656 29.414062 137.617188 19.730469 C 137.800781 15.066406 137.964844 11.1875 137.964844 11.097656 C 137.964844 11.003906 137.777344 10.839844 137.570312 10.726562 C 137.269531 10.5625 136.78125 10.75 135.742188 11.398438 Z M 135.742188 11.398438 "/>
<path style=" stroke:none;fill-rule:nonzero;fill:rgb(0%,0%,0%);fill-opacity:1;" d="M 54.976562 13.742188 C 53.589844 13.859375 51.203125 13.90625 49.722656 13.859375 L 46.992188 13.765625 L 46.992188 14.300781 C 46.992188 14.789062 47.105469 14.855469 47.894531 14.855469 C 48.703125 14.855469 48.933594 14.996094 50.046875 16.273438 L 51.320312 17.667969 L 51.457031 24.445312 C 51.550781 28.183594 51.621094 33.894531 51.621094 37.144531 L 51.621094 43.0625 L 50.484375 44.6875 C 49.398438 46.242188 49.304688 46.3125 48.101562 46.542969 C 47.082031 46.753906 46.851562 46.871094 46.804688 47.332031 C 46.757812 47.636719 46.804688 47.960938 46.921875 48.054688 C 47.015625 48.167969 48.402344 48.101562 50 47.890625 C 52.753906 47.566406 57.59375 47.613281 60.023438 47.984375 C 60.808594 48.101562 60.878906 48.078125 60.878906 47.519531 C 60.878906 47.007812 60.742188 46.917969 59.304688 46.566406 L 57.753906 46.171875 L 56.644531 44.433594 L 55.554688 42.691406 L 55.554688 33.195312 L 58.285156 33.171875 L 60.996094 33.148438 L 64.234375 31.851562 L 67.476562 30.527344 L 69.167969 27.972656 C 70.09375 26.558594 70.902344 25.210938 70.949219 24.957031 C 71.019531 24.699219 70.949219 23.121094 70.785156 21.472656 L 70.484375 18.457031 L 67.984375 16.457031 L 65.484375 14.460938 L 61.828125 13.953125 C 59.816406 13.695312 58.03125 13.488281 57.847656 13.488281 C 57.660156 13.511719 56.390625 13.625 54.976562 13.742188 Z M 58.285156 14.996094 C 59.28125 15.089844 60.230469 15.460938 62.128906 16.4375 L 64.652344 17.757812 L 65.671875 20.5 L 66.667969 23.261719 L 65.996094 26.164062 C 65.601562 27.765625 65.207031 29.15625 65.117188 29.273438 C 65.023438 29.367188 63.773438 30.085938 62.339844 30.851562 L 59.746094 32.269531 L 57.640625 32.269531 C 56.132812 32.269531 55.554688 32.175781 55.53125 31.964844 C 55.507812 31.828125 55.53125 28.136719 55.554688 23.816406 L 55.601562 15.925781 L 54.839844 15.273438 L 54.050781 14.601562 L 55.507812 14.71875 C 56.296875 14.8125 57.546875 14.925781 58.285156 14.996094 Z M 58.285156 14.996094 "/>
<path style=" stroke:none;fill-rule:nonzero;fill:rgb(0%,0%,0%);fill-opacity:1;" d="M 182.523438 25.652344 C 181.667969 26.417969 180.925781 26.8125 179.675781 27.183594 C 178.402344 27.578125 178.007812 27.789062 178.078125 28.066406 C 178.125 28.273438 178.265625 28.414062 178.425781 28.390625 C 178.566406 28.34375 179.097656 28.761719 179.605469 29.320312 L 180.53125 30.292969 L 180.554688 37.257812 L 180.554688 44.222656 L 179.90625 45.382812 C 179.492188 46.148438 179.027344 46.660156 178.519531 46.871094 C 178.054688 47.078125 177.777344 47.355469 177.824219 47.566406 C 177.894531 47.890625 178.519531 47.9375 182.476562 47.9375 C 186.527344 47.9375 187.035156 47.890625 187.035156 47.566406 C 187.035156 47.3125 186.757812 47.148438 186.132812 47.03125 C 185.371094 46.917969 185.117188 46.707031 184.515625 45.777344 L 183.796875 44.640625 L 183.796875 30.410156 L 183.171875 30.386719 C 182.683594 30.363281 183.195312 30.039062 185.183594 29.085938 C 188.007812 27.695312 189.398438 27.417969 191.527344 27.71875 C 192.523438 27.878906 192.59375 27.925781 193.726562 29.855469 L 194.90625 31.851562 L 194.90625 44.59375 L 194.304688 45.640625 C 193.84375 46.429688 193.519531 46.707031 192.847656 46.894531 C 192.058594 47.101562 191.96875 47.195312 192.082031 47.707031 C 192.175781 48.285156 192.246094 48.308594 193.265625 48.125 C 194.605469 47.914062 198.679688 47.914062 199.839844 48.144531 C 201.066406 48.378906 200.972656 47.890625 199.492188 46.40625 L 198.308594 45.222656 L 198.472656 38.652344 C 198.632812 32.105469 198.632812 32.105469 198.03125 29.667969 L 197.429688 27.253906 L 195.300781 26.046875 L 193.171875 24.863281 L 190.140625 25.746094 C 187.640625 26.488281 186.851562 26.835938 185.648438 27.71875 C 184.839844 28.320312 184.144531 28.761719 184.097656 28.714844 C 184.050781 28.667969 184.121094 27.855469 184.257812 26.929688 C 184.445312 25.699219 184.421875 25.164062 184.234375 24.933594 C 183.867188 24.492188 183.820312 24.492188 182.523438 25.652344 Z M 182.523438 25.652344 "/>
<path style=" stroke:none;fill-rule:nonzero;fill:rgb(0%,0%,0%);fill-opacity:1;" d="M 108.542969 25.28125 L 106.804688 25.417969 L 100.507812 31.128906 L 101.621094 32.175781 C 102.222656 32.730469 102.800781 33.195312 102.917969 33.195312 C 103.03125 33.195312 103.632812 32.730469 104.28125 32.175781 L 105.417969 31.175781 L 104.769531 30.292969 L 104.121094 29.4375 L 105.324219 28.367188 C 107.058594 26.835938 107.015625 26.835938 108.589844 27.417969 C 110.484375 28.113281 111.179688 29.109375 111.34375 31.433594 C 111.433594 32.847656 111.527344 33.105469 111.992188 33.335938 L 112.523438 33.589844 L 111.875 33.847656 C 111.527344 33.984375 109.515625 34.660156 107.40625 35.332031 C 103.75 36.492188 103.519531 36.609375 101.804688 38 L 100.046875 39.464844 L 100.140625 41.273438 C 100.207031 42.25 100.300781 43.710938 100.371094 44.523438 L 100.507812 45.988281 L 102.800781 47.125 L 105.09375 48.285156 L 107.105469 47.773438 C 108.867188 47.355469 109.328125 47.125 110.484375 46.125 C 111.621094 45.152344 111.78125 45.058594 111.550781 45.59375 C 111.273438 46.171875 111.320312 46.289062 112.292969 47.242188 L 113.308594 48.261719 L 115.625 47.773438 C 116.898438 47.519531 117.984375 47.265625 118.007812 47.242188 C 118.054688 47.195312 118.03125 46.9375 117.941406 46.683594 C 117.847656 46.359375 117.59375 46.195312 117.175781 46.195312 C 116.667969 46.171875 116.320312 45.871094 115.441406 44.617188 C 114.375 43.109375 114.328125 43.015625 114.445312 41.785156 C 114.515625 41.089844 114.628906 38.09375 114.722656 35.125 L 114.882812 29.738281 L 113.308594 27.417969 C 111.574219 24.792969 112.105469 25.023438 108.542969 25.28125 Z M 111.34375 36.863281 C 111.34375 37.746094 111.390625 39.695312 111.480469 41.230469 L 111.597656 43.992188 L 110.253906 44.988281 C 108.933594 45.988281 108.890625 46.011719 107.453125 45.871094 C 106.132812 45.753906 105.832031 45.640625 104.605469 44.640625 L 103.242188 43.527344 L 103.242188 41.320312 C 103.242188 40.113281 103.332031 38.976562 103.449219 38.792969 C 103.632812 38.511719 110.695312 35.308594 111.179688 35.285156 C 111.273438 35.285156 111.34375 36.003906 111.34375 36.863281 Z M 111.34375 36.863281 "/>
<path style=" stroke:none;fill-rule:nonzero;fill:rgb(0%,0%,0%);fill-opacity:1;" d="M 157.753906 26.90625 L 154.769531 28.484375 L 153.425781 32.175781 C 152.683594 34.21875 152.082031 36.167969 152.082031 36.5625 C 152.082031 36.933594 152.292969 38.558594 152.523438 40.136719 L 152.941406 43.015625 L 154.304688 44.269531 C 157.660156 47.3125 157.339844 47.148438 160.808594 47.730469 L 163.980469 48.261719 L 166.992188 47.542969 C 168.65625 47.148438 170.140625 46.777344 170.277344 46.683594 C 170.441406 46.613281 171.390625 45.5 172.40625 44.246094 L 174.257812 41.949219 L 174.746094 38.882812 C 175.023438 37.1875 175.230469 35.5625 175.230469 35.261719 C 175.230469 34.960938 174.792969 33.429688 174.257812 31.851562 L 173.308594 28.996094 L 171.320312 27.554688 C 168.726562 25.722656 167.316406 25.304688 163.542969 25.304688 L 160.765625 25.304688 Z M 167.5 27.625 L 169.421875 28.808594 L 170.347656 31.6875 L 171.273438 34.542969 L 170.625 38.351562 C 170 42.109375 169.976562 42.15625 168.679688 44.410156 C 167.941406 45.640625 167.269531 46.660156 167.175781 46.660156 C 167.082031 46.660156 166.132812 46.824219 165.046875 46.984375 L 163.101562 47.3125 L 160.878906 46.195312 L 158.65625 45.082031 L 157.40625 42.367188 C 155.996094 39.324219 156.042969 39.648438 156.691406 34.472656 C 157.175781 30.78125 157.082031 30.96875 159.535156 28.34375 C 160.972656 26.8125 160.972656 26.8125 162.5 26.671875 C 165.53125 26.417969 165.441406 26.394531 167.5 27.625 Z M 167.5 27.625 "/>
<path style=" stroke:none;fill-rule:nonzero;fill:rgb(0%,0%,0%);fill-opacity:1;" d="M 181.96875 55.808594 L 181.480469 56.339844 L 181.945312 56.757812 C 182.40625 57.175781 182.429688 57.175781 182.871094 56.734375 C 183.285156 56.316406 183.285156 56.269531 182.894531 55.785156 L 182.476562 55.273438 Z M 181.96875 55.808594 "/>
<path style=" stroke:none;fill-rule:nonzero;fill:rgb(0%,0%,0%);fill-opacity:1;" d="M 157.175781 56.179688 C 157.175781 56.316406 157.316406 56.410156 157.476562 56.410156 C 157.660156 56.410156 158.007812 56.644531 158.285156 56.945312 C 158.773438 57.457031 158.796875 57.6875 158.796875 61.957031 C 158.796875 66.371094 158.796875 66.417969 158.21875 66.972656 C 157.917969 67.296875 157.546875 67.554688 157.40625 67.554688 C 157.292969 67.554688 157.175781 67.644531 157.175781 67.738281 C 157.175781 67.832031 158.265625 67.925781 159.605469 67.902344 C 160.949219 67.902344 162.035156 67.832031 162.035156 67.714844 C 162.035156 67.625 161.828125 67.554688 161.597656 67.554688 C 161.34375 67.554688 160.925781 67.273438 160.671875 66.949219 C 160.277344 66.4375 160.183594 66 160.183594 64.628906 L 160.183594 62.910156 L 161.066406 62.910156 C 163.519531 62.910156 165.484375 61.261719 165.507812 59.195312 C 165.507812 57.964844 165.140625 57.339844 163.980469 56.621094 C 163.265625 56.179688 162.753906 56.109375 160.160156 56.039062 C 158.265625 55.96875 157.175781 56.039062 157.175781 56.179688 Z M 162.5 57.105469 C 163.679688 57.710938 164.167969 58.917969 163.84375 60.402344 C 163.609375 61.332031 163.472656 61.519531 162.570312 61.957031 C 162.015625 62.214844 161.25 62.445312 160.878906 62.445312 L 160.183594 62.445312 L 160.183594 59.566406 C 160.183594 57.480469 160.117188 56.644531 159.90625 56.550781 C 159.746094 56.480469 160.070312 56.457031 160.601562 56.527344 C 161.15625 56.597656 162.015625 56.851562 162.5 57.105469 Z M 162.5 57.105469 "/>
<path style=" stroke:none;fill-rule:nonzero;fill:rgb(0%,0%,0%);fill-opacity:1;" d="M 199.839844 59.707031 C 199.167969 60.402344 198.609375 61.03125 198.609375 61.125 C 198.609375 61.214844 198.890625 61.285156 199.257812 61.285156 L 199.882812 61.285156 L 199.816406 63.769531 C 199.722656 66.832031 199.976562 67.925781 200.878906 68.085938 C 201.226562 68.15625 201.734375 68.0625 202.035156 67.878906 C 202.660156 67.484375 202.707031 67.089844 202.128906 67.25 C 201.410156 67.4375 201.203125 66.832031 201.042969 64.023438 L 200.902344 61.308594 L 201.667969 61.238281 C 202.617188 61.144531 202.730469 60.496094 201.804688 60.402344 C 201.25 60.332031 201.179688 60.21875 201.109375 59.40625 L 201.042969 58.476562 Z M 199.839844 59.707031 "/>
<path style=" stroke:none;fill-rule:nonzero;fill:rgb(0%,0%,0%);fill-opacity:1;" d="M 169.953125 60.355469 C 169.582031 60.589844 169.191406 61.007812 169.121094 61.238281 C 169.027344 61.496094 168.820312 61.820312 168.65625 61.957031 C 168.402344 62.167969 168.355469 62.027344 168.472656 61.167969 C 168.589844 60.007812 168.449219 59.917969 167.382812 60.519531 C 166.574219 60.984375 166.527344 61.125 167.015625 61.519531 C 167.292969 61.75 167.359375 62.375 167.359375 64.328125 C 167.359375 66.554688 167.316406 66.902344 166.898438 67.320312 C 166.644531 67.578125 166.433594 67.808594 166.433594 67.832031 C 166.433594 67.878906 167.199219 67.902344 168.148438 67.902344 C 169.097656 67.925781 169.816406 67.832031 169.769531 67.738281 C 169.699219 67.644531 169.492188 67.554688 169.328125 67.554688 C 168.703125 67.554688 168.472656 66.625 168.566406 64.394531 C 168.632812 62.515625 168.703125 62.167969 169.167969 61.703125 C 169.605469 61.238281 169.746094 61.214844 170.160156 61.496094 C 170.601562 61.75 170.71875 61.726562 171.089844 61.355469 C 171.480469 60.960938 171.480469 60.914062 171.089844 60.425781 C 170.671875 59.9375 170.671875 59.9375 169.953125 60.355469 Z M 169.953125 60.355469 "/>
<path style=" stroke:none;fill-rule:nonzero;fill:rgb(0%,0%,0%);fill-opacity:1;" d="M 182.292969 60.378906 C 181.921875 60.636719 181.410156 60.820312 181.203125 60.820312 C 180.671875 60.820312 180.671875 60.9375 181.203125 61.472656 C 181.574219 61.84375 181.667969 62.421875 181.78125 65.464844 C 181.898438 68.738281 181.875 69.085938 181.433594 70.015625 C 181.109375 70.640625 180.695312 71.105469 180.277344 71.292969 C 179.492188 71.617188 179.652344 72.035156 180.464844 71.730469 C 181.757812 71.222656 182.570312 70.316406 182.824219 69.085938 C 183.148438 67.53125 183.449219 60.21875 183.195312 60.078125 C 183.078125 60.007812 182.683594 60.148438 182.292969 60.378906 Z M 182.292969 60.378906 "/>
<path style=" stroke:none;fill-rule:nonzero;fill:rgb(0%,0%,0%);fill-opacity:1;" d="M 186.875 60.195312 C 185.855469 60.773438 185 62.261719 184.839844 63.769531 C 184.675781 65.046875 184.722656 65.300781 185.300781 66.347656 C 185.832031 67.34375 186.109375 67.601562 186.992188 67.878906 C 187.546875 68.085938 188.285156 68.179688 188.632812 68.109375 C 189.257812 67.949219 190.972656 66.460938 190.972656 66.066406 C 190.972656 65.953125 190.742188 66.066406 190.441406 66.347656 C 189.605469 67.136719 188.589844 67.230469 187.617188 66.625 C 186.875 66.160156 185.625 64.304688 186.042969 64.304688 C 186.15625 64.304688 186.089844 64.210938 185.902344 64.09375 C 185.578125 63.886719 186.367188 63.746094 189.304688 63.46875 L 190.972656 63.304688 L 190.832031 62.46875 C 190.625 61.285156 190.140625 60.613281 189.234375 60.21875 C 188.265625 59.824219 187.546875 59.824219 186.875 60.195312 Z M 188.84375 60.773438 C 189.144531 61.007812 189.421875 61.542969 189.492188 62.003906 L 189.628906 62.839844 L 188.519531 63.003906 C 187.894531 63.097656 187.105469 63.210938 186.757812 63.28125 C 186.132812 63.398438 186.109375 63.375 186.109375 62.515625 C 186.132812 60.796875 187.617188 59.824219 188.84375 60.773438 Z M 188.84375 60.773438 "/>
<path style=" stroke:none;fill-rule:nonzero;fill:rgb(0%,0%,0%);fill-opacity:1;" d="M 194.628906 60.3125 C 193.726562 60.636719 193.355469 60.9375 192.683594 61.957031 C 191.898438 63.144531 191.851562 63.28125 191.96875 64.605469 C 192.082031 65.789062 192.199219 66.089844 192.941406 66.855469 C 193.589844 67.507812 194.027344 67.761719 194.792969 67.855469 C 195.902344 68.019531 197.339844 67.554688 197.824219 66.878906 C 198.171875 66.4375 198.054688 66.230469 197.640625 66.554688 C 197.476562 66.695312 196.992188 66.855469 196.550781 66.949219 C 194.859375 67.273438 193.308594 65.394531 193.285156 63.050781 C 193.285156 60.890625 195.140625 59.847656 196.574219 61.214844 C 197.199219 61.820312 197.222656 61.820312 197.683594 61.402344 C 198.148438 60.984375 198.148438 60.960938 197.753906 60.566406 C 197.128906 59.984375 195.878906 59.871094 194.628906 60.3125 Z M 194.628906 60.3125 "/>
<path style=" stroke:none;fill-rule:nonzero;fill:rgb(0%,0%,0%);fill-opacity:1;" d="M 173.890625 60.636719 C 173.078125 61.054688 172.847656 61.355469 172.429688 62.421875 C 171.714844 64.375 171.921875 65.765625 173.125 66.902344 C 173.820312 67.578125 174.257812 67.785156 174.816406 67.785156 L 175.578125 67.761719 L 174.953125 67.414062 C 174.582031 67.230469 174.097656 66.648438 173.820312 66.113281 C 173.402344 65.300781 173.355469 64.929688 173.496094 63.628906 C 173.632812 62.355469 173.773438 61.980469 174.375 61.332031 C 174.953125 60.730469 175.277344 60.589844 176.019531 60.589844 C 177.894531 60.613281 178.84375 62.214844 178.425781 64.652344 C 178.078125 66.53125 177.476562 67.507812 176.480469 67.691406 C 176.042969 67.761719 175.71875 67.902344 175.785156 67.972656 C 176.019531 68.179688 178.125 67.484375 178.65625 66.996094 C 179.375 66.347656 179.605469 65.90625 179.839844 64.628906 C 180.117188 63.121094 179.582031 61.542969 178.519531 60.820312 C 177.382812 60.03125 175.253906 59.9375 173.890625 60.636719 Z M 173.890625 60.636719 "/>
</g>
</svg>
