<?xml version="1.0" standalone="no"?>
<!DOCTYPE svg PUBLIC "-//W3C//DTD SVG 20010904//EN"
 "http://www.w3.org/TR/2001/REC-SVG-20010904/DTD/svg10.dtd">
<svg version="1.0" xmlns="http://www.w3.org/2000/svg"
 width="983.000000pt" height="459.000000pt" viewBox="0 0 983.000000 459.000000"
 preserveAspectRatio="xMidYMid meet">

<g transform="translate(0.000000,459.000000) scale(0.100000,-0.100000)"
fill="#000000" stroke="none">
<path d="M8580 4370 c-30 -5 -113 -14 -185 -20 -71 -5 -191 -19 -265 -31 -74
-11 -200 -29 -280 -39 -80 -11 -170 -24 -200 -30 -30 -6 -129 -19 -220 -31
-91 -11 -210 -28 -265 -39 -55 -10 -143 -22 -195 -25 -130 -9 -426 -43 -530
-61 -47 -8 -141 -21 -210 -29 -257 -28 -639 -75 -740 -90 -58 -9 -148 -22
-200 -30 -52 -8 -135 -19 -185 -25 -182 -21 -298 -42 -388 -69 -50 -16 -132
-39 -182 -51 -109 -26 -141 -37 -272 -89 -57 -23 -110 -41 -118 -41 -13 0
-206 -83 -365 -157 -30 -14 -132 -52 -227 -84 -212 -73 -378 -143 -548 -230
-71 -37 -214 -110 -318 -163 -103 -52 -212 -111 -242 -131 -31 -19 -59 -35
-64 -35 -5 0 -11 -4 -13 -9 -1 -5 -48 -38 -103 -74 -55 -37 -126 -86 -157
-109 -106 -80 -228 -168 -234 -168 -7 0 -69 -49 -174 -136 -50 -41 -122 -89
-175 -116 -254 -126 -505 -327 -890 -712 -282 -283 -395 -408 -439 -485 -11
-21 -36 -62 -53 -92 -88 -147 -54 -326 79 -413 100 -65 277 -121 434 -137 60
-6 114 -13 120 -14 6 -2 24 -29 40 -61 81 -162 296 -285 471 -270 69 5 199 48
293 96 68 35 180 163 180 206 0 28 6 29 215 44 83 6 188 17 235 26 189 34 351
67 465 94 66 16 162 36 213 45 94 16 375 85 427 105 16 6 80 22 144 35 197 42
805 229 971 300 41 17 152 55 245 84 275 85 681 221 805 269 63 24 174 63 245
87 162 53 680 244 756 278 31 14 82 32 113 41 30 9 70 25 88 35 18 11 57 26
86 35 29 8 87 31 130 49 42 19 131 58 197 85 66 28 134 57 150 66 17 8 68 30
115 49 165 68 628 294 661 323 8 8 21 14 28 14 7 0 43 15 80 34 136 68 281
136 292 136 6 0 26 -8 43 -19 39 -24 161 -54 193 -48 13 2 26 0 29 -5 10 -15
160 1 229 24 33 11 101 41 150 66 201 102 354 319 355 504 l1 63 92 53 c158
92 272 174 275 201 6 39 -6 65 -55 123 -26 30 -86 101 -132 157 -46 55 -88
101 -92 101 -13 0 2 -31 38 -80 18 -25 44 -65 57 -90 13 -25 51 -73 85 -108
34 -35 61 -71 61 -81 0 -11 -13 -24 -32 -32 -18 -7 -42 -21 -53 -31 -24 -21
-134 -88 -145 -88 -4 0 -13 -6 -19 -14 -7 -8 -43 -33 -82 -56 -38 -22 -69 -45
-69 -50 0 -5 -12 -13 -27 -16 -16 -4 -38 -17 -50 -29 -13 -12 -51 -39 -85 -60
-35 -21 -85 -55 -113 -75 -57 -42 -498 -290 -515 -290 -6 0 -26 -11 -43 -24
-18 -13 -50 -29 -72 -36 -22 -7 -49 -19 -61 -26 -11 -8 -45 -22 -75 -33 -87
-31 -260 -109 -309 -139 -67 -42 -81 -49 -129 -63 -24 -7 -61 -26 -82 -41 -21
-15 -45 -28 -53 -28 -8 0 -18 -4 -21 -10 -3 -5 -15 -10 -27 -10 -11 0 -53 -18
-92 -39 -39 -21 -82 -42 -96 -46 -25 -7 -210 -92 -265 -122 -85 -46 -225 -112
-259 -123 -21 -7 -73 -30 -116 -51 -43 -22 -86 -39 -96 -39 -24 0 -103 -36
-125 -56 -9 -8 -38 -19 -65 -24 -27 -4 -92 -25 -144 -46 -52 -20 -142 -54
-200 -74 -248 -90 -300 -109 -346 -133 -78 -39 -195 -77 -280 -91 -12 -2 -51
-17 -85 -33 -138 -64 -571 -214 -657 -228 -41 -7 -213 -62 -322 -104 -30 -12
-61 -21 -69 -21 -8 0 -75 -24 -150 -54 -75 -30 -152 -59 -171 -64 -144 -42
-197 -59 -286 -88 -55 -19 -109 -34 -120 -34 -11 0 -53 -11 -94 -24 -94 -30
-189 -53 -260 -61 -30 -4 -71 -15 -90 -24 -19 -10 -55 -23 -80 -30 -25 -7 -76
-24 -115 -37 -38 -13 -97 -26 -130 -30 -66 -6 -200 -29 -255 -44 -19 -5 -57
-14 -85 -20 -27 -6 -72 -18 -100 -26 -65 -18 -196 -43 -265 -50 -30 -3 -71
-10 -90 -14 -56 -14 -441 -43 -486 -36 -22 3 -95 1 -160 -5 -149 -12 -368 -15
-499 -6 -55 4 -147 9 -205 13 -239 12 -313 25 -451 77 -178 67 -234 134 -233
282 1 79 26 130 160 315 27 38 310 338 358 380 16 14 92 88 170 165 77 78 166
159 197 182 31 23 76 58 101 80 102 85 258 196 316 224 26 12 73 40 104 61 31
21 60 38 64 38 4 0 15 7 25 16 19 17 -13 45 404 -357 136 -131 215 -187 301
-213 32 -10 66 -24 74 -31 8 -7 26 -15 40 -18 14 -3 50 -12 80 -21 132 -38
402 -2 650 86 69 24 152 50 185 57 33 7 71 18 85 23 23 10 86 27 170 48 19 4
49 13 65 19 49 17 128 42 160 51 252 66 395 112 432 137 15 11 39 23 53 26 52
11 190 65 234 91 26 15 50 25 54 22 4 -2 29 6 56 19 26 13 80 31 119 40 40 10
86 23 102 30 17 7 50 21 75 30 25 10 59 23 75 31 17 7 57 25 90 39 33 15 85
35 115 45 54 18 200 78 293 120 26 11 51 18 56 15 5 -3 12 -1 15 4 9 14 87 52
141 68 28 8 75 30 105 47 30 18 60 31 67 29 11 -4 141 49 215 88 20 10 44 19
53 19 8 0 35 18 59 40 24 22 64 49 89 60 63 28 232 139 291 192 27 23 58 63
68 87 28 62 29 190 2 307 -24 106 -47 156 -117 260 -29 42 -62 95 -75 117 -13
23 -44 68 -69 100 -25 32 -44 59 -42 60 20 13 95 31 139 34 30 2 120 12 200
22 80 10 190 19 245 20 111 2 185 10 200 21 13 10 203 40 320 51 50 5 110 13
135 19 25 6 101 18 170 26 69 7 201 25 293 40 92 14 223 29 290 34 67 5 172
14 232 21 169 17 215 10 385 -58 90 -36 123 -59 154 -108 34 -52 271 -296 306
-315 20 -11 21 -10 10 10 -7 12 -49 63 -93 113 -45 50 -104 116 -130 146 -104
121 -142 154 -213 188 -39 18 -84 35 -100 38 -16 2 -47 9 -69 14 -58 15 -241
21 -305 11z m-2220 -350 c0 -5 -4 -10 -9 -10 -6 0 -13 5 -16 10 -3 6 1 10 9
10 9 0 16 -4 16 -10z m-16 -92 c51 -51 107 -115 126 -143 19 -27 37 -51 42
-53 4 -2 8 -8 8 -13 0 -5 13 -30 29 -56 32 -52 83 -196 100 -283 10 -48 9 -62
-10 -110 -28 -73 -30 -75 -123 -122 -44 -22 -97 -51 -118 -64 -21 -13 -42 -24
-48 -24 -12 0 -117 -51 -220 -106 -41 -23 -87 -44 -101 -47 -14 -4 -59 -25
-100 -48 -106 -59 -446 -204 -599 -256 -25 -8 -103 -36 -175 -62 -71 -27 -166
-55 -210 -63 -128 -25 -148 -7 -234 210 -87 220 -216 451 -338 604 -53 67
-172 176 -215 199 -36 18 -88 71 -88 90 0 13 32 28 133 62 269 92 261 90 592
179 79 21 274 51 475 73 74 8 146 18 160 21 57 14 724 101 789 103 29 1 44
-10 125 -91z m-2295 -457 c67 -46 176 -167 265 -296 55 -79 84 -124 170 -268
115 -192 175 -368 157 -462 -15 -78 -64 -118 -202 -167 -63 -22 -118 -41 -124
-42 -5 -2 -23 -8 -40 -15 -16 -6 -43 -16 -60 -22 -16 -6 -39 -15 -50 -20 -112
-47 -273 -105 -315 -113 -50 -9 -146 -37 -210 -61 -68 -25 -382 -117 -530
-154 -47 -12 -118 -30 -158 -41 -172 -46 -348 -51 -453 -13 -54 20 -133 74
-248 172 -30 25 -88 74 -130 109 -42 35 -80 69 -86 75 -15 19 -136 117 -199
161 -31 22 -56 46 -56 54 0 23 66 76 195 159 66 42 149 99 185 126 157 121
326 224 553 339 98 50 192 100 210 112 92 61 370 181 647 280 85 31 196 71
245 90 122 47 160 47 234 -3z m5301 -457 c-48 -143 -170 -275 -324 -348 -126
-60 -204 -68 -338 -36 -141 34 -141 37 2 111 67 35 130 72 140 82 11 9 21 17
22 15 6 -4 185 93 204 110 10 10 61 44 112 76 52 32 96 65 99 72 3 8 9 14 15
14 5 0 26 11 46 25 l37 25 3 -40 c2 -24 -6 -69 -18 -106z m-7653 -2620 c10
-27 -104 -124 -203 -173 -74 -36 -99 -44 -149 -44 -63 -1 -149 19 -201 46 -29
15 -164 147 -167 163 -1 5 93 7 208 6 116 -1 248 2 295 7 148 14 210 13 217
-5z"/>
<path d="M9685 3480 c-3 -5 -1 -10 4 -10 6 0 11 5 11 10 0 6 -2 10 -4 10 -3 0
-8 -4 -11 -10z"/>
<path d="M7165 2554 c-89 -52 -98 -56 -121 -50 -19 5 -26 2 -33 -16 -6 -15
-24 -28 -52 -36 -23 -7 -53 -22 -67 -33 -14 -10 -32 -19 -41 -19 -10 0 -21 -4
-26 -9 -15 -14 -127 -73 -146 -76 -9 -2 -70 -28 -135 -58 -115 -53 -152 -68
-157 -65 -1 1 -15 -5 -32 -14 -16 -9 -100 -51 -185 -93 -85 -43 -162 -84 -171
-91 -8 -8 -20 -14 -25 -14 -20 0 -280 -103 -354 -140 -19 -10 -55 -24 -79 -31
-24 -7 -54 -21 -66 -31 -13 -10 -28 -18 -34 -18 -6 0 -40 -14 -74 -30 -35 -17
-69 -30 -75 -30 -14 0 -222 -68 -244 -81 -29 -15 -158 -55 -238 -73 -72 -16
-136 -42 -190 -77 -14 -9 -47 -20 -75 -24 -27 -3 -69 -17 -92 -31 -23 -13 -47
-24 -53 -24 -6 0 -30 -9 -53 -21 -23 -11 -67 -27 -97 -34 -30 -7 -82 -21 -115
-33 -81 -28 -175 -54 -325 -92 -69 -17 -139 -36 -156 -41 -17 -5 -37 -9 -45
-9 -8 0 -52 -11 -99 -26 -47 -14 -107 -32 -135 -39 -56 -15 -179 -51 -240 -70
-36 -11 -148 -35 -230 -49 -51 -8 -218 -45 -258 -56 -20 -6 -49 -13 -65 -15
-50 -8 -174 -36 -199 -46 -13 -5 -42 -9 -63 -9 -21 0 -41 -4 -45 -9 -3 -6 -13
-9 -23 -9 -9 1 -53 -4 -97 -10 -251 -36 -582 -68 -657 -64 -14 1 -39 -3 -55
-9 -15 -6 -52 -10 -80 -10 -29 0 -53 -3 -53 -7 0 -6 -273 -11 -924 -16 -98 -1
-161 -5 -163 -11 -2 -6 12 -18 29 -28 29 -15 64 -17 273 -17 262 -1 447 5 655
20 74 5 241 15 370 20 129 6 260 15 290 20 30 5 109 15 175 21 66 6 134 15
150 20 34 10 161 31 187 30 10 0 20 4 23 10 4 5 18 9 33 9 48 0 381 62 427 80
68 26 170 50 233 55 41 3 82 10 92 15 10 6 32 10 48 10 16 0 35 7 42 15 7 8
25 15 40 15 15 0 70 11 121 26 52 14 139 36 194 49 55 14 127 34 160 45 33 11
68 20 78 20 9 0 25 4 35 9 17 9 125 37 198 51 22 5 67 21 100 35 32 15 115 46
184 70 69 24 170 59 225 78 55 19 134 45 175 57 41 12 113 35 160 50 47 16
101 32 120 35 33 7 62 18 135 50 17 7 53 20 80 28 122 36 163 51 208 73 27 13
56 24 65 24 9 0 55 16 102 36 47 20 103 41 125 47 22 5 51 18 65 27 24 16 396
200 405 200 5 0 302 146 335 165 14 8 32 15 41 15 8 0 35 13 60 28 24 16 70
39 102 52 31 13 57 27 57 31 0 4 21 15 48 25 26 10 70 33 98 51 28 18 55 33
59 33 5 0 18 9 29 19 20 18 59 41 139 84 28 14 37 25 35 40 -4 28 -17 28 -63
1z"/>
</g>
</svg>
