<?xml version="1.0" standalone="no"?>
<!DOCTYPE svg PUBLIC "-//W3C//DTD SVG 20010904//EN"
 "http://www.w3.org/TR/2001/REC-SVG-20010904/DTD/svg10.dtd">
<svg version="1.0" xmlns="http://www.w3.org/2000/svg"
 width="984.000000pt" height="460.000000pt" viewBox="0 0 984.000000 460.000000"
 preserveAspectRatio="xMidYMid meet">

<g transform="translate(0.000000,460.000000) scale(0.100000,-0.100000)"
fill="#000000" stroke="none">
<path d="M8042 4377 l-22 -23 25 -24 25 -23 0 46 c0 26 -1 47 -3 47 -2 0 -13
-10 -25 -23z"/>
<path d="M8120 4355 l-44 -45 47 0 47 0 0 45 c0 25 -1 45 -3 45 -2 0 -23 -20
-47 -45z"/>
<path d="M8220 4355 l-44 -45 47 0 47 0 0 45 c0 25 -1 45 -3 45 -2 0 -23 -20
-47 -45z"/>
<path d="M8360 4353 l0 -47 45 44 c25 24 45 45 45 47 0 2 -20 3 -45 3 l-45 0
0 -47z"/>
<path d="M8460 4353 l0 -47 45 44 c25 24 45 45 45 47 0 2 -20 3 -45 3 l-45 0
0 -47z"/>
<path d="M8560 4353 l0 -47 45 44 c25 24 45 45 45 47 0 2 -20 3 -45 3 l-45 0
0 -47z"/>
<path d="M8660 4353 l0 -47 45 44 c25 24 45 45 45 47 0 2 -20 3 -45 3 l-45 0
0 -47z"/>
<path d="M8760 4353 l0 -47 45 44 c25 24 45 45 45 47 0 2 -20 3 -45 3 l-45 0
0 -47z"/>
<path d="M8860 4358 l0 -42 38 35 c20 18 41 37 47 41 5 5 -12 8 -38 8 l-47 0
0 -42z"/>
<path d="M9022 4377 l-22 -23 25 -24 25 -23 0 46 c0 26 -1 47 -3 47 -2 0 -13
-10 -25 -23z"/>
<path d="M9075 4330 c-18 -20 -17 -20 25 -20 42 0 43 0 25 20 -10 11 -21 20
-25 20 -4 0 -15 -9 -25 -20z"/>
<path d="M7680 4263 l0 -47 45 44 45 44 0 -49 0 -49 50 49 50 49 0 -49 0 -48
25 23 25 24 -27 28 c-26 27 -31 28 -120 28 l-93 0 0 -47z"/>
<path d="M7330 4255 l-44 -45 47 0 47 0 0 45 c0 25 -1 45 -3 45 -2 0 -23 -20
-47 -45z"/>
<path d="M7430 4256 l-44 -46 144 0 143 0 -23 25 -24 25 -23 -22 -23 -21 0 43
0 43 -47 -44 -48 -44 -5 43 -5 43 -45 -45z"/>
<path d="M9150 4253 c0 -40 5 -54 25 -73 l25 -23 25 23 25 23 0 -45 c0 -35 6
-50 25 -68 l25 -24 22 22 22 22 -47 48 c-43 44 -47 52 -47 97 l0 48 -25 -23
-25 -23 -25 23 -25 23 0 -50z m75 -23 c18 -20 17 -20 -25 -20 -42 0 -43 0 -25
20 10 11 21 20 25 20 4 0 15 -9 25 -20z"/>
<path d="M6910 4185 l24 -25 23 22 c13 12 23 23 23 25 0 2 -21 3 -47 3 l-46 0
23 -25z"/>
<path d="M6990 4163 l0 -47 45 44 45 44 0 -49 0 -49 50 49 50 49 0 -49 0 -50
27 27 27 27 -24 26 c-22 23 -30 25 -122 25 l-98 0 0 -47z"/>
<path d="M6640 4155 l-44 -45 47 0 47 0 0 45 c0 25 -1 45 -3 45 -2 0 -23 -20
-47 -45z"/>
<path d="M6740 4155 l-44 -45 47 0 47 0 0 45 c0 25 -1 45 -3 45 -2 0 -23 -20
-47 -45z"/>
<path d="M5781 4086 l-24 -26 23 -25 c19 -20 33 -25 72 -25 l48 0 0 47 0 47
-44 -43 -45 -44 -3 47 -3 48 -24 -26z"/>
<path d="M6200 4063 l0 -47 45 44 c25 24 45 45 45 47 0 2 -20 3 -45 3 l-45 0
0 -47z"/>
<path d="M6300 4062 c0 -39 5 -53 25 -72 l25 -23 25 23 25 23 0 -48 c0 -36 6
-55 22 -72 l22 -23 23 22 23 21 0 -44 c0 -40 5 -50 50 -94 47 -46 50 -52 50
-100 0 -48 3 -54 50 -100 l50 -49 0 -98 0 -98 50 0 50 0 0 47 c0 43 -4 52 -47
95 l-47 48 49 0 49 0 -52 53 -52 53 0 94 0 93 -23 -21 -24 -22 -26 21 c-23 17
-27 28 -27 73 0 43 -4 57 -25 76 l-25 23 -25 -23 -25 -23 0 96 0 97 -95 0 -95
0 0 -48z m262 -174 l-22 -22 -22 22 -22 22 44 0 44 0 -22 -22z"/>
<path d="M5950 4056 l-44 -46 97 0 97 0 0 46 0 45 -27 -19 c-16 -11 -37 -30
-48 -42 l-20 -22 -5 41 -5 42 -45 -45z"/>
<path d="M9372 4037 l-22 -23 25 -24 25 -24 22 22 22 22 -25 25 -25 26 -22
-24z"/>
<path d="M5065 3960 l-49 -50 195 0 195 0 49 50 49 50 -49 0 c-45 0 -53 -4
-97 -47 l-48 -47 0 44 0 44 -45 -44 -45 -44 0 49 0 49 -49 -48 -50 -49 -3 47
-3 47 -50 -51z"/>
<path d="M5510 3963 l0 -47 45 44 c25 24 45 45 45 47 0 2 -20 3 -45 3 l-45 0
0 -47z"/>
<path d="M5610 3963 l0 -47 45 44 c25 24 45 45 45 47 0 2 -20 3 -45 3 l-45 0
0 -47z"/>
<path d="M9472 3937 l-22 -23 23 -22 23 -22 22 23 22 23 -23 22 -23 22 -22
-23z"/>
<path d="M4595 3890 c-18 -20 -18 -21 3 -43 l22 -21 0 42 c0 23 -2 42 -3 42
-2 0 -12 -9 -22 -20z"/>
<path d="M4670 3865 l-44 -45 47 0 47 0 0 45 c0 25 -1 45 -3 45 -2 0 -23 -20
-47 -45z"/>
<path d="M4748 3888 l22 -22 22 22 22 22 -44 0 -44 0 22 -22z"/>
<path d="M4820 3863 l0 -47 45 44 c25 24 45 45 45 47 0 2 -20 3 -45 3 l-45 0
0 -47z"/>
<path d="M4920 3863 l0 -46 25 23 25 24 -22 23 c-12 13 -23 23 -25 23 -2 0 -3
-21 -3 -47z"/>
<path d="M4745 3840 c-18 -20 -17 -20 25 -20 42 0 43 0 25 20 -10 11 -21 20
-25 20 -4 0 -15 -9 -25 -20z"/>
<path d="M4385 3770 l-49 -50 45 0 c41 0 49 5 94 50 l49 50 -45 0 c-41 0 -49
-5 -94 -50z"/>
<path d="M4302 3787 l-22 -23 25 -24 25 -23 0 46 c0 26 -1 47 -3 47 -2 0 -13
-10 -25 -23z"/>
<path d="M4530 3770 l0 -44 22 22 22 22 -22 22 -22 22 0 -44z"/>
<path d="M9615 3790 c-18 -20 -18 -21 3 -43 l22 -21 0 42 c0 23 -2 42 -3 42
-2 0 -12 -9 -22 -20z"/>
<path d="M4160 3695 l24 -25 22 21 23 21 3 -42 3 -42 25 20 25 20 -24 26 c-20
21 -34 26 -74 26 l-50 0 23 -25z"/>
<path d="M9640 3675 c0 -49 2 -52 75 -125 l74 -74 26 24 25 24 -47 48 c-44 45
-51 48 -97 48 l-49 0 23 25 24 26 -27 27 -27 27 0 -50z"/>
<path d="M4080 3665 c-41 -41 -48 -45 -94 -45 -46 0 -54 -4 -98 -47 l-48 -47
0 49 0 48 -25 -23 -25 -24 27 -28 c26 -27 31 -28 122 -28 83 0 97 -3 118 -22
l23 -21 25 23 c19 18 25 33 25 68 l0 45 -23 -21 -23 -22 -24 25 -23 25 46 0
47 0 0 45 c0 25 -1 45 -3 45 -2 0 -23 -20 -47 -45z"/>
<path d="M9715 3690 c-18 -20 -18 -21 3 -43 l22 -21 0 42 c0 23 -2 42 -3 42
-2 0 -12 -9 -22 -20z"/>
<path d="M3590 3475 l-44 -45 47 0 47 0 0 45 c0 25 -1 45 -3 45 -2 0 -23 -20
-47 -45z"/>
<path d="M3668 3498 l22 -22 22 22 22 22 -44 0 -44 0 22 -22z"/>
<path d="M3740 3473 l0 -47 45 44 c25 24 45 45 45 47 0 2 -20 3 -45 3 l-45 0
0 -47z"/>
<path d="M4130 3472 c0 -39 5 -53 25 -72 l25 -23 25 23 25 23 0 -49 c0 -46 3
-53 50 -99 45 -44 50 -54 50 -94 l0 -44 23 21 23 22 27 -28 c21 -22 27 -38 27
-73 0 -40 5 -49 50 -94 45 -44 50 -54 50 -94 l0 -44 23 21 23 22 24 -25 23
-25 -48 0 -48 0 23 -25 24 -25 23 22 23 21 0 -93 0 -94 52 -53 52 -53 -49 0
-49 0 44 -45 44 -45 -47 0 -47 0 0 -50 0 -50 -98 0 c-92 0 -100 -2 -122 -25
l-23 -25 23 -25 23 -25 -95 0 -96 0 -55 -50 -55 -50 -93 0 -93 0 -48 -47 -48
-47 0 49 0 48 -25 -23 -25 -24 22 -23 21 -23 -93 0 -94 0 -53 -52 -53 -52 0
49 0 48 -25 -23 -25 -24 22 -23 21 -23 -93 0 -94 0 -48 -47 -48 -47 0 49 0 49
-53 -52 -53 -52 -94 0 -93 0 23 -25 24 -26 -27 -27 -27 -27 0 50 0 49 -50 -49
-50 -49 0 49 0 49 -45 -44 -45 -44 0 49 0 49 -50 -49 -50 -49 0 49 0 49 -50
-49 -50 -49 0 49 0 50 -27 -28 -27 -27 -48 47 -48 47 -25 -24 -25 -23 0 50 c0
40 -5 54 -25 73 l-25 23 -25 -23 -25 -23 0 51 0 52 -50 0 -50 0 0 42 0 41 -23
-21 -23 -22 -22 23 c-17 18 -22 36 -22 77 l0 54 -28 -27 -28 -27 -22 23 c-17
18 -22 36 -22 77 l0 54 -28 -27 -28 -27 -74 75 c-73 73 -76 75 -124 75 l-50 0
27 -28 27 -28 -23 -22 c-17 -16 -36 -22 -72 -22 l-48 0 23 -25 23 -25 -23 -25
-23 -25 50 0 c40 0 54 5 73 25 l24 25 23 -22 c18 -17 23 -32 23 -71 l0 -50 25
23 25 23 25 -23 c20 -19 25 -33 25 -73 l0 -50 25 23 25 23 25 -23 c20 -19 25
-33 25 -74 l0 -50 50 49 50 49 0 -50 c0 -46 4 -53 45 -94 43 -42 45 -47 45
-99 l0 -55 50 49 50 49 0 -47 0 -47 50 0 50 0 0 -47 0 -47 50 49 50 49 0 -52
0 -52 292 0 292 0 53 52 53 52 0 -49 0 -48 25 23 25 24 -22 23 -21 23 93 0 94
0 48 47 48 47 0 -49 0 -50 27 27 27 27 -24 26 -23 25 143 0 143 0 -21 23 -22
23 25 24 25 23 0 -42 0 -43 52 46 53 46 95 0 96 0 49 50 49 50 95 0 94 0 -21
23 -22 23 25 24 25 23 0 -48 0 -49 48 47 48 47 100 0 c94 0 102 2 124 25 l23
25 -23 25 -23 25 148 0 148 0 -23 25 -23 25 23 25 c22 23 30 25 118 25 l95 0
-23 25 -23 25 23 25 c23 24 27 25 168 25 l145 0 -21 23 -22 23 23 22 c21 20
34 22 122 22 94 0 100 1 127 27 l28 27 -22 23 -21 23 94 0 95 0 49 50 49 50
101 0 c93 0 103 2 123 23 l22 23 -25 24 -25 23 0 -43 0 -44 -22 22 -22 22 24
25 c22 23 30 25 122 25 l98 0 0 50 0 50 48 0 c42 0 53 5 99 45 44 38 58 45 94
45 33 0 49 6 71 27 l28 27 -22 23 -21 23 43 0 c34 0 50 6 72 27 l28 27 -22 23
-21 23 43 0 44 0 -49 50 c-45 45 -53 50 -94 50 l-45 0 49 -50 49 -50 -50 0
c-47 0 -53 -3 -99 -50 -46 -47 -52 -50 -100 -50 -48 0 -54 -3 -100 -50 -46
-47 -52 -50 -100 -50 -47 0 -54 -3 -95 -45 -41 -42 -48 -45 -95 -45 -48 0 -54
-3 -100 -50 -46 -47 -52 -50 -100 -50 -48 0 -54 -3 -100 -50 l-49 -50 -95 0
-94 0 21 -23 22 -23 -28 -27 c-26 -25 -34 -27 -122 -27 l-94 0 -48 -47 -48
-47 0 49 0 50 -27 -27 -27 -27 24 -26 23 -25 -98 0 -99 0 -48 -47 -48 -47 0
49 0 48 -25 -23 -25 -23 -25 23 c-20 19 -25 33 -25 75 0 41 -5 56 -23 73 l-23
22 -24 -25 -23 -25 43 0 44 0 -22 -22 -22 -22 -25 24 c-24 22 -25 29 -25 125
l0 101 -50 49 c-45 45 -50 54 -50 94 0 32 -6 51 -22 68 l-22 23 -23 -22 -23
-21 0 93 c0 88 -2 96 -27 122 l-27 28 -23 -22 -23 -21 0 45 c0 35 -6 50 -25
68 l-25 23 -25 -23 -25 -23 0 50 c0 40 -5 54 -25 73 l-25 23 -25 -23 -25 -23
0 46 0 47 -50 0 -50 0 0 -48z m390 -245 c0 -2 -10 -13 -23 -25 l-23 -22 -24
25 -23 25 46 0 c26 0 47 -1 47 -3z m2070 -149 l0 -42 -22 21 c-21 22 -21 23
-3 43 10 11 20 20 22 20 1 0 3 -19 3 -42z m-980 -485 l0 -46 -25 23 -25 24 22
23 c12 13 23 23 25 23 2 0 3 -21 3 -47z m-3940 -295 l0 -42 -22 21 c-21 22
-21 23 -3 43 10 11 20 20 22 20 1 0 3 -19 3 -42z m2782 -20 l-22 -22 0 44 0
44 22 -22 22 -22 -22 -22z m168 -80 l0 -42 -22 21 c-21 22 -21 23 -3 43 10 11
20 20 22 20 1 0 3 -19 3 -42z m-658 -120 l-22 -22 0 44 0 44 22 -22 22 -22
-22 -22z m68 -70 l0 -42 -22 21 c-21 22 -21 23 -3 43 10 11 20 20 22 20 1 0 3
-19 3 -42z"/>
<path d="M6618 3498 l22 -22 22 22 22 22 -44 0 -44 0 22 -22z"/>
<path d="M9690 3475 l44 -45 -94 0 -93 0 23 -25 23 -25 -23 -25 c-19 -20 -33
-25 -75 -25 -42 0 -56 -5 -75 -25 l-23 -25 23 -25 23 -25 -99 0 -99 -1 100
-94 100 -94 3 95 3 94 48 0 c38 0 52 5 71 25 l23 25 -23 25 -23 25 49 0 c46 0
53 3 97 48 43 43 47 52 47 95 l0 47 -47 0 -47 0 44 -45z m-218 -217 l-22 -22
0 44 0 44 22 -22 22 -22 -22 -22z m68 20 l0 -42 -22 21 c-21 22 -21 23 -3 43
10 11 20 20 22 20 1 0 3 -19 3 -42z m-120 -123 l23 -25 -48 0 -48 0 23 25 c13
14 24 25 25 25 1 0 12 -11 25 -25z"/>
<path d="M3665 3450 c-18 -20 -17 -20 25 -20 42 0 43 0 25 20 -10 11 -21 20
-25 20 -4 0 -15 -9 -25 -20z"/>
<path d="M9765 3450 c-18 -20 -17 -20 25 -20 42 0 43 0 25 20 -10 11 -21 20
-25 20 -4 0 -15 -9 -25 -20z"/>
<path d="M3325 3406 l-30 -24 24 -26 c20 -21 34 -26 76 -26 48 0 54 3 100 50
l49 50 -94 0 c-85 0 -98 -3 -125 -24z m47 -48 l-22 -22 0 44 0 44 22 -22 22
-22 -22 -22z m68 20 l0 -42 -22 21 c-21 22 -21 23 -3 43 10 11 20 20 22 20 1
0 3 -19 3 -42z"/>
<path d="M3105 3280 c-46 -47 -53 -50 -99 -50 l-49 0 23 -25 23 -25 -23 -25
-23 -25 43 0 c34 0 50 6 72 27 l28 27 -22 23 -21 23 93 0 93 0 -23 25 -23 25
23 25 23 25 -44 0 c-40 0 -50 -5 -94 -50z m-55 -102 l0 -42 -22 21 c-21 22
-21 23 -3 43 10 11 20 20 22 20 1 0 3 -19 3 -42z"/>
<path d="M3250 3280 l0 -44 22 22 22 22 -22 22 -22 22 0 -44z"/>
<path d="M2925 3200 c-18 -20 -18 -21 3 -43 l22 -21 0 42 c0 23 -2 42 -3 42
-2 0 -12 -9 -22 -20z"/>
<path d="M2730 3105 l-23 -25 23 -25 c35 -37 106 -36 143 3 l27 28 -23 22
c-35 33 -115 31 -147 -3z m52 -47 l-22 -22 0 44 0 44 22 -22 22 -22 -22 -22z
m68 20 l0 -42 -22 21 c-21 22 -21 23 -3 43 10 11 20 20 22 20 1 0 3 -19 3 -42z"/>
<path d="M9123 3108 l-23 -24 28 -27 c40 -39 107 -38 145 1 l27 28 -25 24 -25
23 0 -48 0 -48 -25 23 -25 23 -24 -22 -25 -23 -3 47 -3 47 -22 -24z"/>
<path d="M9178 3108 l22 -22 22 22 22 22 -44 0 -44 0 22 -22z"/>
<path d="M2532 3007 l-22 -23 25 -24 25 -23 0 46 c0 26 -1 47 -3 47 -2 0 -13
-10 -25 -23z"/>
<path d="M2588 3008 l22 -22 22 22 22 22 -44 0 -44 0 22 -22z"/>
<path d="M2660 2983 l0 -46 25 23 25 24 -22 23 c-12 13 -23 23 -25 23 -2 0 -3
-21 -3 -47z"/>
<path d="M9000 2985 l-44 -45 50 0 c40 0 55 5 72 23 l22 23 -23 22 c-13 12
-25 22 -28 22 -3 0 -25 -20 -49 -45z"/>
<path d="M9378 3008 l22 -22 22 22 22 22 -44 0 -44 0 22 -22z"/>
<path d="M2585 2960 c-18 -20 -17 -20 25 -20 42 0 43 0 25 20 -10 11 -21 20
-25 20 -4 0 -15 -9 -25 -20z"/>
<path d="M9375 2960 c-18 -20 -17 -20 25 -20 42 0 43 0 25 20 -10 11 -21 20
-25 20 -4 0 -15 -9 -25 -20z"/>
<path d="M2382 2913 l27 -27 26 24 25 23 0 -48 0 -48 25 23 25 24 -27 28 c-22
23 -35 28 -77 28 l-51 0 27 -27z"/>
<path d="M8805 2890 l-49 -50 50 0 c47 0 53 3 99 50 l49 50 -50 0 c-47 0 -53
-3 -99 -50z"/>
<path d="M9295 2890 l49 -50 25 25 25 24 -24 26 c-19 20 -33 25 -74 25 l-50 0
49 -50z"/>
<path d="M2385 2860 c-18 -20 -17 -20 25 -20 42 0 43 0 25 20 -10 11 -21 20
-25 20 -4 0 -15 -9 -25 -20z"/>
<path d="M2240 2815 l-23 -25 23 -25 c19 -20 33 -25 73 -25 l50 0 -23 25 -23
25 23 25 23 25 -50 0 c-40 0 -54 -5 -73 -25z"/>
<path d="M8637 2812 l-27 -28 22 -22 22 -22 -22 -22 -22 -22 -23 22 c-17 16
-36 22 -72 22 l-48 0 24 -26 24 -25 -25 -19 -25 -19 -5 41 -5 40 -19 -21 -20
-22 47 -46 46 -47 26 24 25 23 0 -48 0 -49 50 49 50 49 0 -49 0 -48 25 23 25
24 28 -27 c22 -21 38 -27 72 -27 39 0 50 5 92 47 l48 47 0 -44 0 -43 25 23 25
24 -22 23 c-19 21 -30 23 -117 23 -87 1 -99 3 -126 25 l-29 24 -23 -21 -23
-21 0 46 0 47 47 0 46 0 -23 25 -23 25 23 25 23 25 -44 0 c-36 0 -51 -5 -72
-28z m45 -44 l-22 -22 0 44 0 44 22 -22 22 -22 -22 -22z"/>
<path d="M9190 2795 c50 -51 59 -53 85 -25 18 20 18 21 -5 45 -19 20 -33 25
-74 25 l-50 0 44 -45z"/>
<path d="M8760 2790 l0 -44 22 22 22 22 -22 22 -22 22 0 -44z"/>
<path d="M2115 2690 l-49 -50 50 0 c41 0 55 5 74 25 l24 26 -25 24 -25 25 -49
-50z"/>
<path d="M5482 2717 l-22 -23 25 -24 25 -23 0 46 c0 26 -1 47 -3 47 -2 0 -13
-10 -25 -23z"/>
<path d="M9080 2715 l23 -25 -23 -25 -23 -25 44 0 c37 0 51 5 72 28 l27 28
-23 22 c-17 16 -36 22 -72 22 l-48 0 23 -25z m70 -27 l0 -42 -22 21 c-21 22
-21 23 -3 43 10 11 20 20 22 20 1 0 3 -19 3 -42z"/>
<path d="M9025 2710 c-18 -20 -18 -21 3 -43 l22 -21 0 42 c0 23 -2 42 -3 42
-2 0 -12 -9 -22 -20z"/>
<path d="M1998 2618 l22 -22 22 22 22 22 -44 0 -44 0 22 -22z"/>
<path d="M7225 2590 l-49 -50 52 0 52 0 0 50 c0 28 -1 50 -3 50 -1 0 -25 -22
-52 -50z"/>
<path d="M8215 2590 l-49 -50 99 0 98 0 -23 25 -23 25 23 25 23 25 -49 0 c-46
0 -53 -3 -99 -50z"/>
<path d="M2070 2590 l0 -43 -25 23 -26 24 -27 -27 -27 -27 51 0 c41 0 55 5 74
25 l24 25 -22 22 -22 22 0 -44z"/>
<path d="M1842 2517 l-22 -23 25 -24 25 -23 25 23 25 24 -22 23 c-12 13 -24
23 -28 23 -4 0 -16 -10 -28 -23z"/>
<path d="M6963 2518 l-23 -22 22 -23 21 -23 -93 0 c-88 0 -96 -2 -122 -27
l-28 -27 22 -23 21 -23 -95 0 c-88 0 -96 -2 -118 -25 l-23 -25 23 -25 23 -25
-100 0 c-93 0 -101 -2 -123 -25 l-23 -25 23 -25 23 -25 -93 0 -93 0 21 -23 22
-23 -22 -22 -22 -22 94 0 93 0 -21 23 -22 23 23 22 c21 19 34 22 117 22 88 0
96 2 122 27 l28 27 -22 23 -21 23 95 0 c88 0 96 2 118 25 l23 25 -21 23 c-16
17 -22 36 -22 72 l0 48 25 -23 25 -24 -22 -23 -21 -23 93 0 93 0 -23 25 -23
25 23 25 c19 20 33 25 75 25 47 0 54 3 95 45 l44 45 -88 0 c-88 0 -89 0 -71
-20 17 -19 17 -21 -1 -41 l-19 -21 -5 41 -5 42 -22 -23z m-173 -220 l0 -42
-22 21 c-21 22 -21 23 -3 43 10 11 20 20 22 20 1 0 3 -19 3 -42z m-368 -120
l-22 -22 0 44 0 44 22 -22 22 -22 -22 -22z m168 20 l0 -42 -22 21 c-21 22 -21
23 -3 43 10 11 20 20 22 20 1 0 3 -19 3 -42z"/>
<path d="M8020 2495 l-44 -45 94 0 93 0 -21 23 -22 23 22 22 22 22 -50 0 c-46
0 -53 -4 -94 -45z"/>
<path d="M7825 2400 l-49 -50 -100 0 -99 0 23 -25 23 -25 -23 -25 -23 -25 100
0 c93 0 101 2 123 25 l23 25 -23 25 -23 25 49 0 c46 0 53 3 99 50 l49 50 -50
0 c-47 0 -53 -3 -99 -50z m-55 -102 l0 -42 -22 21 c-21 22 -21 23 -3 43 10 11
20 20 22 20 1 0 3 -19 3 -42z"/>
<path d="M5120 2400 l0 -44 22 22 22 22 -22 22 -22 22 0 -44z"/>
<path d="M6990 2400 l0 -44 22 22 22 22 -22 22 -22 22 0 -44z"/>
<path d="M1545 2320 c-18 -20 -18 -21 3 -43 l22 -21 0 42 c0 23 -2 42 -3 42
-2 0 -12 -9 -22 -20z"/>
<path d="M1400 2225 l23 -25 -23 -25 -23 -25 49 0 c46 0 53 3 99 50 l49 50
-99 0 -98 0 23 -25z"/>
<path d="M7353 2228 l-23 -24 28 -27 c26 -25 34 -27 122 -27 l93 0 -23 25 -23
25 23 25 23 25 -93 0 -93 0 21 -23 22 -23 -24 -23 -25 -23 -3 47 -3 47 -22
-24z"/>
<path d="M7580 2200 l0 -44 22 22 22 22 -22 22 -22 22 0 -44z"/>
<path d="M1252 2127 l-22 -23 23 -22 c17 -16 36 -22 72 -22 l48 0 -21 23 -22
23 22 22 22 22 -50 0 c-40 0 -55 -5 -72 -23z"/>
<path d="M6150 2106 c-41 -43 -48 -46 -95 -46 -48 0 -54 -3 -100 -50 l-49 -50
-101 0 -101 0 -49 -50 c-45 -46 -53 -50 -95 -50 -37 0 -52 -5 -70 -25 l-24
-25 22 -22 22 -22 0 42 c0 46 8 52 33 24 16 -17 15 -20 -8 -42 -20 -19 -25
-33 -25 -73 l0 -50 -25 23 -25 24 22 23 21 23 -93 0 -93 0 21 -23 22 -23 -25
-24 -25 -23 0 43 0 44 -45 -44 -45 -44 0 49 0 50 -27 -27 -27 -27 24 -26 23
-25 -93 0 -93 0 21 -23 22 -23 -22 -22 -22 -22 94 0 94 0 48 47 48 47 0 -49 0
-48 25 23 25 24 -22 23 -21 23 94 0 95 0 49 50 c46 47 52 50 100 50 42 0 56 5
75 25 l24 25 26 -25 26 -25 24 25 23 25 -23 25 -23 25 98 0 98 0 -23 25 -23
25 21 23 c16 17 22 36 22 72 l0 48 25 -23 25 -24 -22 -23 -21 -23 93 0 93 0
-21 23 -22 23 25 24 25 23 0 -48 0 -48 25 23 25 24 -24 25 c-18 19 -26 40 -28
74 l-3 48 -45 -45z m-418 -218 l-22 -22 0 44 0 44 22 -22 22 -22 -22 -22z"/>
<path d="M7152 2127 l-22 -23 25 -24 25 -23 0 46 c0 26 -1 47 -3 47 -2 0 -13
-10 -25 -23z"/>
<path d="M7208 2128 l22 -22 -22 -23 -21 -23 49 0 c46 0 53 4 94 45 l44 45
-94 0 -94 0 22 -22z"/>
<path d="M6400 2100 l0 -44 22 22 22 22 -22 22 -22 22 0 -44z"/>
<path d="M1103 2032 l27 -28 -22 -22 -22 -22 50 0 c40 0 55 5 72 23 l22 23
-28 27 c-23 22 -38 27 -77 27 l-49 0 27 -28z"/>
<path d="M6967 2032 l-27 -28 23 -22 c35 -33 115 -31 147 3 l23 25 -23 25
c-35 37 -106 36 -143 -3z m45 -44 l-22 -22 0 44 0 44 22 -22 22 -22 -22 -22z
m68 20 l0 -42 -22 21 c-21 22 -21 23 -3 43 10 11 20 20 22 20 1 0 3 -19 3 -42z"/>
<path d="M4130 2003 l0 -46 25 23 25 24 -22 23 c-12 13 -23 23 -25 23 -2 0 -3
-21 -3 -47z"/>
<path d="M1010 1935 l23 -25 -23 -25 c-19 -20 -33 -25 -73 -25 l-50 0 23 -25
23 -25 -23 -25 -23 -25 50 0 c40 0 54 5 73 25 l23 25 -23 25 -23 25 50 0 c40
0 54 5 73 25 l24 26 -29 24 c-22 17 -43 24 -74 25 l-44 0 23 -25z m70 -27 l0
-42 -22 21 c-21 22 -21 23 -3 43 10 11 20 20 22 20 1 0 3 -19 3 -42z m-100
-100 l0 -42 -22 21 c-21 22 -21 23 -3 43 10 11 20 20 22 20 1 0 3 -19 3 -42z"/>
<path d="M6745 1910 l-49 -50 47 0 47 0 0 47 0 46 25 -23 25 -23 25 23 25 23
0 -43 0 -44 22 22 22 22 -24 25 c-18 20 -33 25 -70 25 -42 0 -50 -4 -95 -50z"/>
<path d="M6520 1835 l23 -25 -23 -25 -23 -25 49 0 c46 0 53 3 99 50 l49 50
-99 0 -98 0 23 -25z m70 -27 l0 -42 -22 21 c-21 22 -21 23 -3 43 10 11 20 20
22 20 1 0 3 -19 3 -42z"/>
<path d="M6465 1830 c-18 -20 -18 -21 3 -43 l22 -21 0 42 c0 23 -2 42 -3 42
-2 0 -12 -9 -22 -20z"/>
<path d="M810 1735 l23 -25 -23 -25 -23 -25 48 0 48 0 -23 25 -23 25 23 25 23
25 -48 0 -48 0 23 -25z"/>
<path d="M6148 1713 c-44 -45 -48 -53 -48 -98 l0 -48 25 23 25 24 -22 23 -21
23 94 0 95 0 49 50 49 50 -50 0 c-46 0 -53 -3 -94 -46 l-45 -45 -5 46 -5 46
-47 -48z"/>
<path d="M6400 1710 l0 -44 22 22 22 22 -22 22 -22 22 0 -44z"/>
<path d="M718 1638 l22 -22 22 22 22 22 -44 0 -44 0 22 -22z"/>
<path d="M4970 1616 l-44 -46 -101 0 -101 0 -49 -50 -49 -50 -101 0 c-95 0
-103 -2 -125 -25 l-23 -25 23 -25 23 -25 -46 0 -47 0 0 -47 0 -46 -25 23 -25
24 22 23 21 23 -44 0 c-40 0 -50 -5 -94 -50 l-49 -50 95 0 95 0 49 50 49 50
101 0 c95 0 103 2 125 25 l23 25 -23 25 -23 25 143 0 143 0 -21 23 -22 23 25
24 25 23 0 -48 0 -49 50 49 50 49 0 -49 0 -48 25 23 25 24 -24 25 c-18 19 -26
40 -28 74 l-3 48 -45 -45z m-518 -218 l-22 -22 0 44 0 44 22 -22 22 -22 -22
-22z m168 20 l0 -42 -22 21 c-21 22 -21 23 -3 43 10 11 20 20 22 20 1 0 3 -19
3 -42z"/>
<path d="M5950 1615 l-44 -45 94 0 93 0 -21 23 -22 23 22 22 22 22 -50 0 c-46
0 -53 -4 -94 -45z"/>
<path d="M715 1590 c-18 -20 -17 -20 25 -20 42 0 43 0 25 20 -10 11 -21 20
-25 20 -4 0 -15 -9 -25 -20z"/>
<path d="M613 1543 l27 -28 27 28 28 27 -55 0 -55 0 28 -27z"/>
<path d="M5810 1523 l0 -47 45 44 c25 24 45 45 45 47 0 2 -20 3 -45 3 l-45 0
0 -47z"/>
<path d="M5660 1516 l-44 -46 94 0 93 0 -23 25 -24 25 -22 -21 -23 -21 -3 41
-3 42 -45 -45z"/>
<path d="M615 1490 c-18 -20 -17 -20 25 -20 42 0 43 0 25 20 -10 11 -21 20
-25 20 -4 0 -15 -9 -25 -20z"/>
<path d="M520 1445 l23 -25 -23 -25 -23 -25 48 0 48 0 -23 25 -23 25 23 25 23
25 -48 0 -48 0 23 -25z"/>
<path d="M5465 1420 l-49 -50 50 0 c47 0 53 3 99 50 l49 50 -50 0 c-47 0 -53
-3 -99 -50z"/>
<path d="M5385 1440 c-18 -20 -18 -21 3 -43 l22 -21 0 42 c0 23 -2 42 -3 42
-2 0 -12 -9 -22 -20z"/>
<path d="M420 1345 l23 -25 -23 -25 -23 -25 46 0 47 0 0 50 0 50 -47 0 -46 0
23 -25z"/>
<path d="M5165 1320 l-49 -50 52 0 52 0 0 47 0 46 23 -21 23 -22 22 22 22 22
0 -49 0 -50 27 27 27 27 -24 26 c-19 20 -33 25 -75 25 -48 0 -54 -3 -100 -50z"/>
<path d="M4080 1316 l-44 -46 -100 0 -100 0 -48 -47 -48 -47 0 49 0 49 -50
-49 c-47 -46 -50 -52 -50 -99 l0 -50 50 49 50 49 0 -49 0 -49 48 47 48 47 96
0 96 0 51 46 51 46 0 -43 0 -42 25 23 25 24 -24 25 c-17 18 -26 40 -28 69 l-3
43 -45 -45z m-207 -74 c16 -17 15 -20 -8 -42 l-25 -23 0 41 c0 46 8 52 33 24z
m157 -24 l0 -42 -22 21 c-21 22 -21 23 -3 43 10 11 20 20 22 20 1 0 3 -19 3
-42z"/>
<path d="M320 1245 l23 -25 -23 -25 c-18 -20 -33 -25 -69 -25 l-45 0 44 -45
44 -45 23 22 23 22 -22 23 -21 23 48 0 48 0 -23 25 -23 25 23 25 23 25 -48 0
-48 0 23 -25z"/>
<path d="M4765 1220 l-49 -50 102 0 102 0 0 52 0 52 -49 -48 -50 -49 -3 47 -3
47 -50 -51z"/>
<path d="M4948 1248 l22 -22 22 22 22 22 -44 0 -44 0 22 -22z"/>
<path d="M5020 1223 l0 -46 25 23 25 24 -22 23 c-12 13 -23 23 -25 23 -2 0 -3
-21 -3 -47z"/>
<path d="M3390 1125 l-44 -45 47 0 47 0 0 45 c0 25 -1 45 -3 45 -2 0 -23 -20
-47 -45z"/>
<path d="M3468 1148 l22 -22 -22 -23 -21 -23 23 -25 24 -25 26 25 c20 19 37
25 70 25 l43 0 -21 23 -22 23 22 22 22 22 -94 0 -94 0 22 -22z"/>
<path d="M4480 1126 l-44 -46 95 0 95 0 44 45 44 45 -47 0 -47 0 0 -42 c0 -40
0 -41 -20 -23 -18 16 -21 16 -44 1 l-25 -16 -3 41 -3 40 -45 -45z"/>
<path d="M3105 1030 l-49 -50 144 0 143 0 -23 25 -23 25 23 25 23 25 -94 0
-95 0 -49 -50z"/>
<path d="M4285 1030 l-49 -50 49 0 c45 0 53 4 97 47 l48 47 0 -44 0 -44 22 22
22 22 -24 25 c-18 20 -33 25 -70 25 -42 0 -50 -4 -95 -50z"/>
<path d="M171 1049 l-24 -20 23 -24 23 -25 -48 0 -49 0 49 -50 49 -50 -24 -25
-24 -25 -23 22 -23 21 0 -43 c0 -39 5 -50 47 -92 l47 -48 -49 0 -50 0 27 -27
27 -27 26 24 25 23 0 -46 0 -47 48 0 c39 0 53 5 72 25 l24 25 -22 22 -22 22
-29 -21 -29 -22 -21 23 c-19 21 -21 33 -21 169 l0 147 47 0 47 0 -44 45 c-24
25 -47 45 -50 45 -3 -1 -16 -10 -29 -21z"/>
<path d="M2825 1050 c-18 -20 -18 -21 3 -43 l22 -21 0 42 c0 23 -2 42 -3 42
-2 0 -12 -9 -22 -20z"/>
<path d="M2900 1026 l-44 -46 -100 0 -100 0 -48 -47 -48 -47 0 49 0 49 -53
-52 -53 -52 -94 0 -93 0 23 -25 23 -25 -23 -25 -23 -25 43 0 c34 0 50 6 72 27
l28 27 25 -24 25 -24 48 47 48 47 149 0 149 0 48 47 48 47 0 -49 0 -50 27 28
27 27 -26 27 c-19 20 -28 41 -30 71 l-3 43 -45 -45z m-218 -118 l-22 -22 0 44
0 44 22 -22 22 -22 -22 -22z"/>
<path d="M3000 1025 l-44 -45 47 0 47 0 0 45 c0 25 -1 45 -3 45 -2 0 -23 -20
-47 -45z"/>
<path d="M3350 1030 l0 -44 22 22 22 22 -22 22 -22 22 0 -44z"/>
<path d="M4202 1047 l-22 -23 25 -24 25 -23 0 46 c0 26 -1 47 -3 47 -2 0 -13
-10 -25 -23z"/>
<path d="M3911 956 l-24 -26 23 -25 c19 -20 33 -25 74 -25 47 0 54 4 98 47
l48 47 0 -49 0 -50 27 27 27 27 -24 26 c-19 20 -33 25 -75 25 -47 0 -54 -3
-95 -46 l-45 -45 -5 46 -5 47 -24 -26z"/>
<path d="M2435 950 c-18 -20 -18 -21 3 -43 l22 -21 0 42 c0 23 -2 42 -3 42 -2
0 -12 -9 -22 -20z"/>
<path d="M1942 858 l-22 -24 25 -24 c20 -19 25 -33 25 -73 l0 -50 25 23 25 24
-22 23 -21 23 91 0 92 0 0 47 0 47 -45 -44 -45 -44 0 49 0 49 -49 -48 -50 -49
-3 47 -3 48 -23 -24z"/>
<path d="M3585 831 l-49 -51 100 0 100 0 49 50 49 50 -50 0 c-46 0 -53 -3 -94
-46 l-45 -45 -5 46 -5 46 -50 -50z"/>
<path d="M2210 825 l-44 -45 47 0 47 0 0 45 c0 25 -1 45 -3 45 -2 0 -23 -20
-47 -45z"/>
<path d="M3415 850 c-18 -20 -18 -21 3 -43 l22 -21 0 42 c0 23 -2 42 -3 42 -2
0 -12 -9 -22 -20z"/>
<path d="M3840 830 l0 -44 22 22 22 22 -22 22 -22 22 0 -44z"/>
<path d="M370 755 l-24 -25 -23 22 -23 21 0 -41 0 -42 195 0 195 0 0 47 0 46
-25 -23 -25 -23 -25 23 -25 23 -25 -23 -25 -23 -23 21 c-35 33 -115 31 -147
-3z"/>
<path d="M740 735 l-44 -45 47 0 47 0 0 45 c0 25 -1 45 -3 45 -2 0 -23 -20
-47 -45z"/>
<path d="M840 735 l-44 -45 47 0 47 0 0 45 c0 25 -1 45 -3 45 -2 0 -23 -20
-47 -45z"/>
<path d="M1030 735 l-44 -45 47 0 47 0 0 45 c0 25 -1 45 -3 45 -2 0 -23 -20
-47 -45z"/>
<path d="M1108 758 l22 -22 -22 -23 -21 -23 93 0 94 0 -44 45 c-41 41 -48 45
-94 45 l-50 0 22 -22z"/>
<path d="M1280 733 l0 -46 25 23 25 24 -22 23 c-12 13 -23 23 -25 23 -2 0 -3
-21 -3 -47z"/>
<path d="M1380 733 l0 -47 45 44 c25 24 45 45 45 47 0 2 -20 3 -45 3 l-45 0 0
-47z"/>
<path d="M1480 733 l0 -47 44 43 45 44 3 -42 3 -42 45 45 44 46 -92 0 -92 0 0
-47z"/>
<path d="M1670 733 l0 -47 45 44 c25 24 45 45 45 47 0 2 -20 3 -45 3 l-45 0 0
-47z"/>
<path d="M1770 733 l0 -47 45 44 c25 24 45 45 45 47 0 2 -20 3 -45 3 l-45 0 0
-47z"/>
<path d="M1870 733 l0 -47 45 44 c25 24 45 45 45 47 0 2 -20 3 -45 3 l-45 0 0
-47z"/>
<path d="M3200 735 l-44 -45 47 0 47 0 0 45 c0 25 -1 45 -3 45 -2 0 -23 -20
-47 -45z"/>
<path d="M3300 735 l-44 -45 50 0 c45 0 54 4 89 41 l40 40 5 -41 5 -41 45 45
44 46 -95 0 -95 0 -44 -45z"/>
<path d="M935 730 l-39 -40 42 0 42 0 0 40 c0 22 -1 40 -3 40 -2 0 -21 -18
-42 -40z"/>
<path d="M2810 644 l-45 -45 -5 43 -5 43 -50 -47 -50 -48 98 0 97 0 0 47 0 46
25 -23 25 -23 25 23 25 23 0 -48 0 -49 50 49 50 49 0 -49 0 -48 25 23 25 24
-27 28 c-26 27 -31 28 -123 28 l-96 0 -44 -46z"/>
<path d="M2875 610 c-18 -20 -17 -20 25 -20 42 0 43 0 25 20 -10 11 -21 20
-25 20 -4 0 -15 -9 -25 -20z"/>
<path d="M300 543 l0 -47 45 44 c25 24 45 45 45 47 0 2 -20 3 -45 3 l-45 0 0
-47z"/>
<path d="M2482 563 l27 -27 25 23 25 23 3 -41 3 -42 45 45 44 46 -99 0 -100 0
27 -27z"/>
<path d="M440 535 l-44 -45 47 0 47 0 0 45 c0 25 -1 45 -3 45 -2 0 -23 -20
-47 -45z"/>
<path d="M2235 560 c-18 -20 -18 -21 3 -43 l22 -21 0 42 c0 23 -2 42 -3 42 -2
0 -12 -9 -22 -20z"/>
<path d="M2310 535 l-44 -45 47 0 47 0 0 45 c0 25 -1 45 -3 45 -2 0 -23 -20
-47 -45z"/>
<path d="M515 510 c-18 -20 -18 -21 5 -45 l24 -25 22 21 23 21 3 -41 3 -42 45
45 44 46 -50 0 c-38 0 -55 5 -69 20 -23 25 -27 25 -50 0z"/>
<path d="M2385 510 c-18 -20 -17 -20 25 -20 42 0 43 0 25 20 -10 11 -21 20
-25 20 -4 0 -15 -9 -25 -20z"/>
<path d="M690 443 l0 -47 45 44 c25 24 45 45 45 47 0 2 -20 3 -45 3 l-45 0 0
-47z"/>
<path d="M790 443 l0 -46 23 21 23 22 27 -28 c24 -25 26 -36 29 -117 l3 -90
43 39 42 38 0 -44 c0 -35 6 -50 25 -68 l25 -23 25 23 25 23 0 -48 0 -48 25 23
25 23 23 -21 c22 -21 33 -22 172 -22 l148 0 -21 23 -22 23 25 24 25 23 0 -43
0 -44 48 47 c42 42 53 47 92 47 l43 0 -21 23 -22 23 22 22 22 22 -45 0 c-40 0
-50 -5 -89 -45 l-44 -45 -105 0 c-94 0 -107 2 -128 22 l-23 21 -25 -23 -25
-23 0 48 0 48 -25 -23 -25 -23 -25 23 c-19 18 -25 33 -25 68 l0 45 -23 -21
-23 -22 -24 25 -23 25 23 25 23 25 -23 25 c-22 23 -30 25 -122 25 l-98 0 0
-47z"/>
<path d="M1230 445 l-45 -46 -5 41 -5 41 -45 -45 -44 -46 194 0 194 0 48 47
48 47 0 -49 0 -49 50 49 50 49 0 -49 c0 -36 -6 -55 -22 -72 l-21 -23 21 -23
c16 -17 22 -36 22 -72 l0 -48 25 23 25 24 -22 23 -21 23 48 0 49 0 -27 28 -27
28 22 22 22 22 -44 0 -43 0 23 25 24 25 26 -25 c20 -19 37 -25 71 -25 40 0 49
5 94 50 l49 50 -244 0 -244 0 -48 -47 -48 -47 0 49 0 49 -49 -48 -50 -49 -3
47 -3 47 -45 -46z m640 -7 l0 -41 -25 23 -24 23 22 18 c12 10 23 18 25 19 1 0
2 -19 2 -42z"/>
<path d="M1970 443 l0 -47 45 44 c25 24 45 45 45 47 0 2 -20 3 -45 3 l-45 0 0
-47z"/>
<path d="M2070 443 l0 -47 45 44 45 44 0 -49 0 -50 27 27 27 27 -24 26 c-19
20 -33 25 -72 25 l-48 0 0 -47z"/>
<path d="M1055 460 c-18 -20 -18 -21 3 -43 l22 -21 0 42 c0 23 -2 42 -3 42 -2
0 -12 -9 -22 -20z"/>
<path d="M810 365 l24 -25 23 22 c13 12 23 23 23 25 0 2 -21 3 -47 3 l-46 0
23 -25z"/>
</g>
</svg>
